<?xml version="1.0" encoding="utf-8" standalone="no"?>
<!DOCTYPE svg PUBLIC "-//W3C//DTD SVG 1.1//EN"
  "http://www.w3.org/Graphics/SVG/1.1/DTD/svg11.dtd">
<svg xmlns:xlink="http://www.w3.org/1999/xlink" width="269.291339pt" height="170.07874pt" viewBox="0 0 269.291339 170.07874" xmlns="http://www.w3.org/2000/svg" version="1.1">
 <metadata>
  <rdf:RDF xmlns:dc="http://purl.org/dc/elements/1.1/" xmlns:cc="http://creativecommons.org/ns#" xmlns:rdf="http://www.w3.org/1999/02/22-rdf-syntax-ns#">
   <cc:Work>
    <dc:type rdf:resource="http://purl.org/dc/dcmitype/StillImage"/>
    <dc:date>2024-03-05T12:48:54.203499</dc:date>
    <dc:format>image/svg+xml</dc:format>
    <dc:creator>
     <cc:Agent>
      <dc:title>Matplotlib v3.8.2, https://matplotlib.org/</dc:title>
     </cc:Agent>
    </dc:creator>
   </cc:Work>
  </rdf:RDF>
 </metadata>
 <defs>
  <style type="text/css">*{stroke-linejoin: round; stroke-linecap: butt}</style>
 </defs>
 <g id="figure_1">
  <g id="patch_1">
   <path d="M 0 170.07874 
L 269.291339 170.07874 
L 269.291339 0 
L 0 0 
z
" style="fill: #ffffff"/>
  </g>
  <g id="axes_1">
   <g id="patch_2">
    <path d="M 59.492 136.03874 
L 232.191339 136.03874 
L 232.191339 8.64 
L 59.492 8.64 
z
" style="fill: #ffffff"/>
   </g>
   <g id="matplotlib.axis_1">
    <g id="xtick_1">
     <g id="line2d_1">
      <defs>
       <path id="me1e01f7819" d="M 0 0 
L 0 3.5 
" style="stroke: #000000; stroke-width: 0.8"/>
      </defs>
      <g>
       <use xlink:href="#me1e01f7819" x="76.761934" y="136.03874" style="stroke: #000000; stroke-width: 0.8"/>
      </g>
     </g>
     <g id="text_1">
      <text style="font: 8px 'DejaVu Sans', 'Bitstream Vera Sans', 'Computer Modern Sans Serif', 'Lucida Grande', 'Verdana', 'Geneva', 'Lucid', 'Arial', 'Helvetica', 'Avant Garde', sans-serif; text-anchor: middle" x="76.761934" y="149.11749" transform="rotate(-0 76.761934 149.11749)">100</text>
     </g>
    </g>
    <g id="xtick_2">
     <g id="line2d_2">
      <g>
       <use xlink:href="#me1e01f7819" x="111.301802" y="136.03874" style="stroke: #000000; stroke-width: 0.8"/>
      </g>
     </g>
     <g id="text_2">
      <text style="font: 8px 'DejaVu Sans', 'Bitstream Vera Sans', 'Computer Modern Sans Serif', 'Lucida Grande', 'Verdana', 'Geneva', 'Lucid', 'Arial', 'Helvetica', 'Avant Garde', sans-serif; text-anchor: middle" x="111.301802" y="149.11749" transform="rotate(-0 111.301802 149.11749)">200</text>
     </g>
    </g>
    <g id="xtick_3">
     <g id="line2d_3">
      <g>
       <use xlink:href="#me1e01f7819" x="145.841669" y="136.03874" style="stroke: #000000; stroke-width: 0.8"/>
      </g>
     </g>
     <g id="text_3">
      <text style="font: 8px 'DejaVu Sans', 'Bitstream Vera Sans', 'Computer Modern Sans Serif', 'Lucida Grande', 'Verdana', 'Geneva', 'Lucid', 'Arial', 'Helvetica', 'Avant Garde', sans-serif; text-anchor: middle" x="145.841669" y="149.11749" transform="rotate(-0 145.841669 149.11749)">500</text>
     </g>
    </g>
    <g id="xtick_4">
     <g id="line2d_4">
      <g>
       <use xlink:href="#me1e01f7819" x="180.381537" y="136.03874" style="stroke: #000000; stroke-width: 0.8"/>
      </g>
     </g>
     <g id="text_4">
      <text style="font: 8px 'DejaVu Sans', 'Bitstream Vera Sans', 'Computer Modern Sans Serif', 'Lucida Grande', 'Verdana', 'Geneva', 'Lucid', 'Arial', 'Helvetica', 'Avant Garde', sans-serif; text-anchor: middle" x="180.381537" y="149.11749" transform="rotate(-0 180.381537 149.11749)">1000</text>
     </g>
    </g>
    <g id="xtick_5">
     <g id="line2d_5">
      <g>
       <use xlink:href="#me1e01f7819" x="214.921405" y="136.03874" style="stroke: #000000; stroke-width: 0.8"/>
      </g>
     </g>
     <g id="text_5">
      <text style="font: 8px 'DejaVu Sans', 'Bitstream Vera Sans', 'Computer Modern Sans Serif', 'Lucida Grande', 'Verdana', 'Geneva', 'Lucid', 'Arial', 'Helvetica', 'Avant Garde', sans-serif; text-anchor: middle" x="214.921405" y="149.11749" transform="rotate(-0 214.921405 149.11749)">2000</text>
     </g>
    </g>
    <g id="text_6">
     <text style="font: 8px 'DejaVu Sans', 'Bitstream Vera Sans', 'Computer Modern Sans Serif', 'Lucida Grande', 'Verdana', 'Geneva', 'Lucid', 'Arial', 'Helvetica', 'Avant Garde', sans-serif; text-anchor: middle" x="145.841669" y="160.85999" transform="rotate(-0 145.841669 160.85999)">Training size (n)</text>
    </g>
   </g>
   <g id="matplotlib.axis_2">
    <g id="ytick_1">
     <g id="line2d_6">
      <defs>
       <path id="m741f048d66" d="M 0 0 
L -3.5 0 
" style="stroke: #000000; stroke-width: 0.8"/>
      </defs>
      <g>
       <use xlink:href="#m741f048d66" x="59.492" y="133.538845" style="stroke: #000000; stroke-width: 0.8"/>
      </g>
     </g>
     <g id="text_7">
      <text style="font: 8px 'DejaVu Sans', 'Bitstream Vera Sans', 'Computer Modern Sans Serif', 'Lucida Grande', 'Verdana', 'Geneva', 'Lucid', 'Arial', 'Helvetica', 'Avant Garde', sans-serif; text-anchor: end" x="52.492" y="136.57822" transform="rotate(-0 52.492 136.57822)">0.1</text>
     </g>
    </g>
    <g id="ytick_2">
     <g id="line2d_7">
      <g>
       <use xlink:href="#m741f048d66" x="59.492" y="107.111698" style="stroke: #000000; stroke-width: 0.8"/>
      </g>
     </g>
     <g id="text_8">
      <text style="font: 8px 'DejaVu Sans', 'Bitstream Vera Sans', 'Computer Modern Sans Serif', 'Lucida Grande', 'Verdana', 'Geneva', 'Lucid', 'Arial', 'Helvetica', 'Avant Garde', sans-serif; text-anchor: end" x="52.492" y="110.151073" transform="rotate(-0 52.492 110.151073)">0.2</text>
     </g>
    </g>
    <g id="ytick_3">
     <g id="line2d_8">
      <g>
       <use xlink:href="#m741f048d66" x="59.492" y="80.684551" style="stroke: #000000; stroke-width: 0.8"/>
      </g>
     </g>
     <g id="text_9">
      <text style="font: 8px 'DejaVu Sans', 'Bitstream Vera Sans', 'Computer Modern Sans Serif', 'Lucida Grande', 'Verdana', 'Geneva', 'Lucid', 'Arial', 'Helvetica', 'Avant Garde', sans-serif; text-anchor: end" x="52.492" y="83.723926" transform="rotate(-0 52.492 83.723926)">0.3</text>
     </g>
    </g>
    <g id="ytick_4">
     <g id="line2d_9">
      <g>
       <use xlink:href="#m741f048d66" x="59.492" y="54.257404" style="stroke: #000000; stroke-width: 0.8"/>
      </g>
     </g>
     <g id="text_10">
      <text style="font: 8px 'DejaVu Sans', 'Bitstream Vera Sans', 'Computer Modern Sans Serif', 'Lucida Grande', 'Verdana', 'Geneva', 'Lucid', 'Arial', 'Helvetica', 'Avant Garde', sans-serif; text-anchor: end" x="52.492" y="57.296779" transform="rotate(-0 52.492 57.296779)">0.4</text>
     </g>
    </g>
    <g id="ytick_5">
     <g id="line2d_10">
      <g>
       <use xlink:href="#m741f048d66" x="59.492" y="27.830258" style="stroke: #000000; stroke-width: 0.8"/>
      </g>
     </g>
     <g id="text_11">
      <text style="font: 8px 'DejaVu Sans', 'Bitstream Vera Sans', 'Computer Modern Sans Serif', 'Lucida Grande', 'Verdana', 'Geneva', 'Lucid', 'Arial', 'Helvetica', 'Avant Garde', sans-serif; text-anchor: end" x="52.492" y="30.869633" transform="rotate(-0 52.492 30.869633)">0.5</text>
     </g>
    </g>
    <g id="text_12">
     <text style="font: 8px 'DejaVu Sans', 'Bitstream Vera Sans', 'Computer Modern Sans Serif', 'Lucida Grande', 'Verdana', 'Geneva', 'Lucid', 'Arial', 'Helvetica', 'Avant Garde', sans-serif" transform="translate(16.0755 90.99562) rotate(-90)">Smoking </text>
     <text style="font: 8px 'DejaVu Sans', 'Bitstream Vera Sans', 'Computer Modern Sans Serif', 'Lucida Grande', 'Verdana', 'Geneva', 'Lucid', 'Arial', 'Helvetica', 'Avant Garde', sans-serif" transform="translate(25.03375 97.37187) rotate(-90)"> association </text>
     <!-- ($\beta$-coeff) -->
     <g transform="translate(34.0895 89.41937) rotate(-90)">
      <text>
       <tspan style="font: 8px 'DejaVu Sans'" x="0 8.226562 11.113281 15.511719 20.40625 25.328125 28.144531 30.960938" y="-0.875">(-coeff)</tspan>
       <tspan style="font: oblique 8px 'DejaVu Sans'" x="3.121094" y="-0.875">β</tspan>
      </text>
     </g>
    </g>
   </g>
   <g id="line2d_11">
    <path d="M 76.761934 53.967989 
L 111.301802 38.215454 
L 145.841669 63.093288 
L 180.381537 53.916346 
L 214.921405 114.206366 
" clip-path="url(#p6a62329cd6)" style="fill: none; stroke: #4dbbd5; stroke-linecap: square"/>
    <defs>
     <path id="m0035ed35ac" d="M 0 1.253314 
C 0.332383 1.253314 0.651197 1.121257 0.886227 0.886227 
C 1.121257 0.651197 1.253314 0.332383 1.253314 0 
C 1.253314 -0.332383 1.121257 -0.651197 0.886227 -0.886227 
C 0.651197 -1.121257 0.332383 -1.253314 0 -1.253314 
C -0.332383 -1.253314 -0.651197 -1.121257 -0.886227 -0.886227 
C -1.121257 -0.651197 -1.253314 -0.332383 -1.253314 0 
C -1.253314 0.332383 -1.121257 0.651197 -0.886227 0.886227 
C -0.651197 1.121257 -0.332383 1.253314 0 1.253314 
z
" style="stroke: #4dbbd5; stroke-width: 0.75"/>
    </defs>
    <g clip-path="url(#p6a62329cd6)">
     <use xlink:href="#m0035ed35ac" x="76.761934" y="53.967989" style="fill: #4dbbd5; stroke: #4dbbd5; stroke-width: 0.75"/>
     <use xlink:href="#m0035ed35ac" x="111.301802" y="38.215454" style="fill: #4dbbd5; stroke: #4dbbd5; stroke-width: 0.75"/>
     <use xlink:href="#m0035ed35ac" x="145.841669" y="63.093288" style="fill: #4dbbd5; stroke: #4dbbd5; stroke-width: 0.75"/>
     <use xlink:href="#m0035ed35ac" x="180.381537" y="53.916346" style="fill: #4dbbd5; stroke: #4dbbd5; stroke-width: 0.75"/>
     <use xlink:href="#m0035ed35ac" x="214.921405" y="114.206366" style="fill: #4dbbd5; stroke: #4dbbd5; stroke-width: 0.75"/>
    </g>
   </g>
   <g id="line2d_12">
    <path d="M 71.580954 71.370313 
L 81.942914 71.370313 
M 76.761934 71.370313 
L 76.761934 35.424638 
M 71.580954 35.424638 
L 81.942914 35.424638 
" clip-path="url(#p6a62329cd6)" style="fill: none; stroke: #4dbbd5; stroke-linecap: square"/>
   </g>
   <g id="line2d_13">
    <path d="M 106.120821 61.245203 
L 116.482782 61.245203 
M 111.301802 61.245203 
L 111.301802 14.430852 
M 106.120821 14.430852 
L 116.482782 14.430852 
" clip-path="url(#p6a62329cd6)" style="fill: none; stroke: #4dbbd5; stroke-linecap: square"/>
   </g>
   <g id="line2d_14">
    <path d="M 140.660689 76.718849 
L 151.022649 76.718849 
M 145.841669 76.718849 
L 145.841669 49.97623 
M 140.660689 49.97623 
L 151.022649 49.97623 
" clip-path="url(#p6a62329cd6)" style="fill: none; stroke: #4dbbd5; stroke-linecap: square"/>
   </g>
   <g id="line2d_15">
    <path d="M 175.200557 63.223504 
L 185.562517 63.223504 
M 180.381537 63.223504 
L 180.381537 44.230787 
M 175.200557 44.230787 
L 185.562517 44.230787 
" clip-path="url(#p6a62329cd6)" style="fill: none; stroke: #4dbbd5; stroke-linecap: square"/>
   </g>
   <g id="line2d_16">
    <path d="M 209.740425 130.247888 
L 220.102385 130.247888 
M 214.921405 130.247888 
L 214.921405 100.486425 
M 209.740425 100.486425 
L 220.102385 100.486425 
" clip-path="url(#p6a62329cd6)" style="fill: none; stroke: #4dbbd5; stroke-linecap: square"/>
   </g>
   <g id="patch_3">
    <path d="M 59.492 136.03874 
L 59.492 8.64 
" style="fill: none; stroke: #000000; stroke-width: 0.8; stroke-linejoin: miter; stroke-linecap: square"/>
   </g>
   <g id="patch_4">
    <path d="M 232.191339 136.03874 
L 232.191339 8.64 
" style="fill: none; stroke: #000000; stroke-width: 0.8; stroke-linejoin: miter; stroke-linecap: square"/>
   </g>
   <g id="patch_5">
    <path d="M 59.492 136.03874 
L 232.191339 136.03874 
" style="fill: none; stroke: #000000; stroke-width: 0.8; stroke-linejoin: miter; stroke-linecap: square"/>
   </g>
   <g id="legend_1">
    <g id="patch_6">
     <path d="M 118.698839 26.7825 
L 226.591339 26.7825 
Q 228.191339 26.7825 228.191339 25.1825 
L 228.191339 14.24 
Q 228.191339 12.64 226.591339 12.64 
L 118.698839 12.64 
Q 117.098839 12.64 117.098839 14.24 
L 117.098839 25.1825 
Q 117.098839 26.7825 118.698839 26.7825 
z
" style="fill: #ffffff; opacity: 0.8; stroke: #cccccc; stroke-linejoin: miter"/>
    </g>
    <g id="line2d_17">
     <path d="M 120.298839 19.11875 
L 128.298839 19.11875 
L 136.298839 19.11875 
" style="fill: none; stroke: #4dbbd5; stroke-linecap: square"/>
     <g>
      <use xlink:href="#m0035ed35ac" x="128.298839" y="19.11875" style="fill: #4dbbd5; stroke: #4dbbd5; stroke-width: 0.75"/>
     </g>
    </g>
    <g id="text_13">
     <text style="font: 8px 'DejaVu Sans', 'Bitstream Vera Sans', 'Computer Modern Sans Serif', 'Lucida Grande', 'Verdana', 'Geneva', 'Lucid', 'Arial', 'Helvetica', 'Avant Garde', sans-serif; text-anchor: start" x="142.698839" y="21.91875" transform="rotate(-0 142.698839 21.91875)">Smoking association</text>
    </g>
   </g>
  </g>
  <g id="axes_2">
   <g id="matplotlib.axis_3">
    <g id="ytick_6">
     <g id="line2d_18">
      <defs>
       <path id="mbd0539ffbc" d="M 0 0 
L 3.5 0 
" style="stroke: #000000; stroke-width: 0.8"/>
      </defs>
      <g>
       <use xlink:href="#mbd0539ffbc" x="232.191339" y="101.742499" style="stroke: #000000; stroke-width: 0.8"/>
      </g>
     </g>
     <g id="text_14">
      <text style="font: 8px 'DejaVu Sans', 'Bitstream Vera Sans', 'Computer Modern Sans Serif', 'Lucida Grande', 'Verdana', 'Geneva', 'Lucid', 'Arial', 'Helvetica', 'Avant Garde', sans-serif; text-anchor: start" x="239.191339" y="104.781874" transform="rotate(-0 239.191339 104.781874)">20</text>
     </g>
    </g>
    <g id="ytick_7">
     <g id="line2d_19">
      <g>
       <use xlink:href="#mbd0539ffbc" x="232.191339" y="66.084665" style="stroke: #000000; stroke-width: 0.8"/>
      </g>
     </g>
     <g id="text_15">
      <text style="font: 8px 'DejaVu Sans', 'Bitstream Vera Sans', 'Computer Modern Sans Serif', 'Lucida Grande', 'Verdana', 'Geneva', 'Lucid', 'Arial', 'Helvetica', 'Avant Garde', sans-serif; text-anchor: start" x="239.191339" y="69.12404" transform="rotate(-0 239.191339 69.12404)">30</text>
     </g>
    </g>
    <g id="ytick_8">
     <g id="line2d_20">
      <g>
       <use xlink:href="#mbd0539ffbc" x="232.191339" y="30.42683" style="stroke: #000000; stroke-width: 0.8"/>
      </g>
     </g>
     <g id="text_16">
      <text style="font: 8px 'DejaVu Sans', 'Bitstream Vera Sans', 'Computer Modern Sans Serif', 'Lucida Grande', 'Verdana', 'Geneva', 'Lucid', 'Arial', 'Helvetica', 'Avant Garde', sans-serif; text-anchor: start" x="239.191339" y="33.466205" transform="rotate(-0 239.191339 33.466205)">40</text>
     </g>
    </g>
    <g id="text_17">
     <text style="font: 8px 'DejaVu Sans', 'Bitstream Vera Sans', 'Computer Modern Sans Serif', 'Lucida Grande', 'Verdana', 'Geneva', 'Lucid', 'Arial', 'Helvetica', 'Avant Garde', sans-serif; text-anchor: middle" x="259.450089" y="72.33937" transform="rotate(-90 259.450089 72.33937)">MSE</text>
    </g>
   </g>
   <g id="line2d_21">
    <path d="M 76.761934 26.980558 
L 111.301802 64.536127 
L 145.841669 99.162526 
L 180.381537 112.328255 
L 214.921405 128.794776 
" clip-path="url(#p6a62329cd6)" style="fill: none; stroke: #e64b35; stroke-linecap: square"/>
    <defs>
     <path id="m887c5fdd21" d="M 0 1.253314 
C 0.332383 1.253314 0.651197 1.121257 0.886227 0.886227 
C 1.121257 0.651197 1.253314 0.332383 1.253314 0 
C 1.253314 -0.332383 1.121257 -0.651197 0.886227 -0.886227 
C 0.651197 -1.121257 0.332383 -1.253314 0 -1.253314 
C -0.332383 -1.253314 -0.651197 -1.121257 -0.886227 -0.886227 
C -1.121257 -0.651197 -1.253314 -0.332383 -1.253314 0 
C -1.253314 0.332383 -1.121257 0.651197 -0.886227 0.886227 
C -0.651197 1.121257 -0.332383 1.253314 0 1.253314 
z
" style="stroke: #e64b35; stroke-width: 0.75"/>
    </defs>
    <g clip-path="url(#p6a62329cd6)">
     <use xlink:href="#m887c5fdd21" x="76.761934" y="26.980558" style="fill: #e64b35; stroke: #e64b35; stroke-width: 0.75"/>
     <use xlink:href="#m887c5fdd21" x="111.301802" y="64.536127" style="fill: #e64b35; stroke: #e64b35; stroke-width: 0.75"/>
     <use xlink:href="#m887c5fdd21" x="145.841669" y="99.162526" style="fill: #e64b35; stroke: #e64b35; stroke-width: 0.75"/>
     <use xlink:href="#m887c5fdd21" x="180.381537" y="112.328255" style="fill: #e64b35; stroke: #e64b35; stroke-width: 0.75"/>
     <use xlink:href="#m887c5fdd21" x="214.921405" y="128.794776" style="fill: #e64b35; stroke: #e64b35; stroke-width: 0.75"/>
    </g>
   </g>
   <g id="line2d_22">
    <path d="M 71.580954 37.536314 
L 81.942914 37.536314 
M 76.761934 37.536314 
L 76.761934 14.430852 
M 71.580954 14.430852 
L 81.942914 14.430852 
" clip-path="url(#p6a62329cd6)" style="fill: none; stroke: #e64b35; stroke-linecap: square"/>
   </g>
   <g id="line2d_23">
    <path d="M 106.120821 68.927109 
L 116.482782 68.927109 
M 111.301802 68.927109 
L 111.301802 59.386619 
M 106.120821 59.386619 
L 116.482782 59.386619 
" clip-path="url(#p6a62329cd6)" style="fill: none; stroke: #e64b35; stroke-linecap: square"/>
   </g>
   <g id="line2d_24">
    <path d="M 140.660689 101.145261 
L 151.022649 101.145261 
M 145.841669 101.145261 
L 145.841669 97.097071 
M 140.660689 97.097071 
L 151.022649 97.097071 
" clip-path="url(#p6a62329cd6)" style="fill: none; stroke: #e64b35; stroke-linecap: square"/>
   </g>
   <g id="line2d_25">
    <path d="M 175.200557 114.28906 
L 185.562517 114.28906 
M 180.381537 114.28906 
L 180.381537 110.362927 
M 175.200557 110.362927 
L 185.562517 110.362927 
" clip-path="url(#p6a62329cd6)" style="fill: none; stroke: #e64b35; stroke-linecap: square"/>
   </g>
   <g id="line2d_26">
    <path d="M 209.740425 130.247888 
L 220.102385 130.247888 
M 214.921405 130.247888 
L 214.921405 127.398395 
M 209.740425 127.398395 
L 220.102385 127.398395 
" clip-path="url(#p6a62329cd6)" style="fill: none; stroke: #e64b35; stroke-linecap: square"/>
   </g>
   <g id="patch_7">
    <path d="M 59.492 136.03874 
L 59.492 8.64 
" style="fill: none; stroke: #000000; stroke-width: 0.8; stroke-linejoin: miter; stroke-linecap: square"/>
   </g>
   <g id="patch_8">
    <path d="M 232.191339 136.03874 
L 232.191339 8.64 
" style="fill: none; stroke: #000000; stroke-width: 0.8; stroke-linejoin: miter; stroke-linecap: square"/>
   </g>
   <g id="patch_9">
    <path d="M 59.492 136.03874 
L 232.191339 136.03874 
" style="fill: none; stroke: #000000; stroke-width: 0.8; stroke-linejoin: miter; stroke-linecap: square"/>
   </g>
   <g id="legend_2">
    <g id="patch_10">
     <path d="M 118.698839 38.525 
L 226.591339 38.525 
Q 228.191339 38.525 228.191339 36.925 
L 228.191339 14.24 
Q 228.191339 12.64 226.591339 12.64 
L 118.698839 12.64 
Q 117.098839 12.64 117.098839 14.24 
L 117.098839 36.925 
Q 117.098839 38.525 118.698839 38.525 
z
" style="fill: #ffffff; opacity: 0.8; stroke: #cccccc; stroke-linejoin: miter"/>
    </g>
    <g id="line2d_27">
     <path d="M 120.298839 19.11875 
L 128.298839 19.11875 
L 136.298839 19.11875 
" style="fill: none; stroke: #4dbbd5; stroke-linecap: square"/>
     <g>
      <use xlink:href="#m0035ed35ac" x="128.298839" y="19.11875" style="fill: #4dbbd5; stroke: #4dbbd5; stroke-width: 0.75"/>
     </g>
    </g>
    <g id="text_18">
     <text style="font: 8px 'DejaVu Sans', 'Bitstream Vera Sans', 'Computer Modern Sans Serif', 'Lucida Grande', 'Verdana', 'Geneva', 'Lucid', 'Arial', 'Helvetica', 'Avant Garde', sans-serif; text-anchor: start" x="142.698839" y="21.91875" transform="rotate(-0 142.698839 21.91875)">Smoking association</text>
    </g>
    <g id="line2d_28">
     <path d="M 120.298839 30.86125 
L 128.298839 30.86125 
L 136.298839 30.86125 
" style="fill: none; stroke: #e64b35; stroke-linecap: square"/>
     <g>
      <use xlink:href="#m887c5fdd21" x="128.298839" y="30.86125" style="fill: #e64b35; stroke: #e64b35; stroke-width: 0.75"/>
     </g>
    </g>
    <g id="text_19">
     <text style="font: 8px 'DejaVu Sans', 'Bitstream Vera Sans', 'Computer Modern Sans Serif', 'Lucida Grande', 'Verdana', 'Geneva', 'Lucid', 'Arial', 'Helvetica', 'Avant Garde', sans-serif; text-anchor: start" x="142.698839" y="33.66125" transform="rotate(-0 142.698839 33.66125)">MSE</text>
    </g>
   </g>
  </g>
 </g>
 <defs>
  <clipPath id="p6a62329cd6">
   <rect x="59.492" y="8.64" width="172.699339" height="127.39874"/>
  </clipPath>
 </defs>
</svg>
