<?xml version="1.0" encoding="utf-8" standalone="no"?>
<!DOCTYPE svg PUBLIC "-//W3C//DTD SVG 1.1//EN"
  "http://www.w3.org/Graphics/SVG/1.1/DTD/svg11.dtd">
<svg xmlns:xlink="http://www.w3.org/1999/xlink" width="460.8pt" height="345.6pt" viewBox="0 0 460.8 345.6" xmlns="http://www.w3.org/2000/svg" version="1.1">
 <metadata>
  <rdf:RDF xmlns:dc="http://purl.org/dc/elements/1.1/" xmlns:cc="http://creativecommons.org/ns#" xmlns:rdf="http://www.w3.org/1999/02/22-rdf-syntax-ns#">
   <cc:Work>
    <dc:type rdf:resource="http://purl.org/dc/dcmitype/StillImage"/>
    <dc:date>2023-02-10T11:17:09.356948</dc:date>
    <dc:format>image/svg+xml</dc:format>
    <dc:creator>
     <cc:Agent>
      <dc:title>Matplotlib v3.6.3, https://matplotlib.org/</dc:title>
     </cc:Agent>
    </dc:creator>
   </cc:Work>
  </rdf:RDF>
 </metadata>
 <defs>
  <style type="text/css">*{stroke-linejoin: round; stroke-linecap: butt}</style>
 </defs>
 <g id="figure_1">
  <g id="patch_1">
   <path d="M 0 345.6 
L 460.8 345.6 
L 460.8 0 
L 0 0 
z
" style="fill: #ffffff"/>
  </g>
  <g id="axes_1">
   <g id="patch_2">
    <path d="M 57.6 307.584 
L 414.72 307.584 
L 414.72 41.472 
L 57.6 41.472 
z
" style="fill: #ffffff"/>
   </g>
   <g id="matplotlib.axis_1">
    <g id="xtick_1">
     <g id="line2d_1">
      <defs>
       <path id="m58441be923" d="M 0 0 
L 0 3.5 
" style="stroke: #000000; stroke-width: 0.8"/>
      </defs>
      <g>
       <use xlink:href="#m58441be923" x="58.45935" y="307.584" style="stroke: #000000; stroke-width: 0.8"/>
      </g>
     </g>
     <g id="text_1">
      <!-- −1.0 -->
      <g transform="translate(46.317944 322.182437) scale(0.1 -0.1)">
       <defs>
        <path id="DejaVuSans-2212" d="M 678 2272 
L 4684 2272 
L 4684 1741 
L 678 1741 
L 678 2272 
z
" transform="scale(0.015625)"/>
        <path id="DejaVuSans-31" d="M 794 531 
L 1825 531 
L 1825 4091 
L 703 3866 
L 703 4441 
L 1819 4666 
L 2450 4666 
L 2450 531 
L 3481 531 
L 3481 0 
L 794 0 
L 794 531 
z
" transform="scale(0.015625)"/>
        <path id="DejaVuSans-2e" d="M 684 794 
L 1344 794 
L 1344 0 
L 684 0 
L 684 794 
z
" transform="scale(0.015625)"/>
        <path id="DejaVuSans-30" d="M 2034 4250 
Q 1547 4250 1301 3770 
Q 1056 3291 1056 2328 
Q 1056 1369 1301 889 
Q 1547 409 2034 409 
Q 2525 409 2770 889 
Q 3016 1369 3016 2328 
Q 3016 3291 2770 3770 
Q 2525 4250 2034 4250 
z
M 2034 4750 
Q 2819 4750 3233 4129 
Q 3647 3509 3647 2328 
Q 3647 1150 3233 529 
Q 2819 -91 2034 -91 
Q 1250 -91 836 529 
Q 422 1150 422 2328 
Q 422 3509 836 4129 
Q 1250 4750 2034 4750 
z
" transform="scale(0.015625)"/>
       </defs>
       <use xlink:href="#DejaVuSans-2212"/>
       <use xlink:href="#DejaVuSans-31" x="83.789062"/>
       <use xlink:href="#DejaVuSans-2e" x="147.412109"/>
       <use xlink:href="#DejaVuSans-30" x="179.199219"/>
      </g>
     </g>
    </g>
    <g id="xtick_2">
     <g id="line2d_2">
      <g>
       <use xlink:href="#m58441be923" x="130.174736" y="307.584" style="stroke: #000000; stroke-width: 0.8"/>
      </g>
     </g>
     <g id="text_2">
      <!-- −0.5 -->
      <g transform="translate(118.03333 322.182437) scale(0.1 -0.1)">
       <defs>
        <path id="DejaVuSans-35" d="M 691 4666 
L 3169 4666 
L 3169 4134 
L 1269 4134 
L 1269 2991 
Q 1406 3038 1543 3061 
Q 1681 3084 1819 3084 
Q 2600 3084 3056 2656 
Q 3513 2228 3513 1497 
Q 3513 744 3044 326 
Q 2575 -91 1722 -91 
Q 1428 -91 1123 -41 
Q 819 9 494 109 
L 494 744 
Q 775 591 1075 516 
Q 1375 441 1709 441 
Q 2250 441 2565 725 
Q 2881 1009 2881 1497 
Q 2881 1984 2565 2268 
Q 2250 2553 1709 2553 
Q 1456 2553 1204 2497 
Q 953 2441 691 2322 
L 691 4666 
z
" transform="scale(0.015625)"/>
       </defs>
       <use xlink:href="#DejaVuSans-2212"/>
       <use xlink:href="#DejaVuSans-30" x="83.789062"/>
       <use xlink:href="#DejaVuSans-2e" x="147.412109"/>
       <use xlink:href="#DejaVuSans-35" x="179.199219"/>
      </g>
     </g>
    </g>
    <g id="xtick_3">
     <g id="line2d_3">
      <g>
       <use xlink:href="#m58441be923" x="201.890123" y="307.584" style="stroke: #000000; stroke-width: 0.8"/>
      </g>
     </g>
     <g id="text_3">
      <!-- 0.0 -->
      <g transform="translate(193.93856 322.182437) scale(0.1 -0.1)">
       <use xlink:href="#DejaVuSans-30"/>
       <use xlink:href="#DejaVuSans-2e" x="63.623047"/>
       <use xlink:href="#DejaVuSans-30" x="95.410156"/>
      </g>
     </g>
    </g>
    <g id="xtick_4">
     <g id="line2d_4">
      <g>
       <use xlink:href="#m58441be923" x="273.605509" y="307.584" style="stroke: #000000; stroke-width: 0.8"/>
      </g>
     </g>
     <g id="text_4">
      <!-- 0.5 -->
      <g transform="translate(265.653946 322.182437) scale(0.1 -0.1)">
       <use xlink:href="#DejaVuSans-30"/>
       <use xlink:href="#DejaVuSans-2e" x="63.623047"/>
       <use xlink:href="#DejaVuSans-35" x="95.410156"/>
      </g>
     </g>
    </g>
    <g id="xtick_5">
     <g id="line2d_5">
      <g>
       <use xlink:href="#m58441be923" x="345.320895" y="307.584" style="stroke: #000000; stroke-width: 0.8"/>
      </g>
     </g>
     <g id="text_5">
      <!-- 1.0 -->
      <g transform="translate(337.369333 322.182437) scale(0.1 -0.1)">
       <use xlink:href="#DejaVuSans-31"/>
       <use xlink:href="#DejaVuSans-2e" x="63.623047"/>
       <use xlink:href="#DejaVuSans-30" x="95.410156"/>
      </g>
     </g>
    </g>
    <g id="text_6">
     <!-- acc -->
     <g transform="translate(227.5975 335.860562) scale(0.1 -0.1)">
      <defs>
       <path id="DejaVuSans-61" d="M 2194 1759 
Q 1497 1759 1228 1600 
Q 959 1441 959 1056 
Q 959 750 1161 570 
Q 1363 391 1709 391 
Q 2188 391 2477 730 
Q 2766 1069 2766 1631 
L 2766 1759 
L 2194 1759 
z
M 3341 1997 
L 3341 0 
L 2766 0 
L 2766 531 
Q 2569 213 2275 61 
Q 1981 -91 1556 -91 
Q 1019 -91 701 211 
Q 384 513 384 1019 
Q 384 1609 779 1909 
Q 1175 2209 1959 2209 
L 2766 2209 
L 2766 2266 
Q 2766 2663 2505 2880 
Q 2244 3097 1772 3097 
Q 1472 3097 1187 3025 
Q 903 2953 641 2809 
L 641 3341 
Q 956 3463 1253 3523 
Q 1550 3584 1831 3584 
Q 2591 3584 2966 3190 
Q 3341 2797 3341 1997 
z
" transform="scale(0.015625)"/>
       <path id="DejaVuSans-63" d="M 3122 3366 
L 3122 2828 
Q 2878 2963 2633 3030 
Q 2388 3097 2138 3097 
Q 1578 3097 1268 2742 
Q 959 2388 959 1747 
Q 959 1106 1268 751 
Q 1578 397 2138 397 
Q 2388 397 2633 464 
Q 2878 531 3122 666 
L 3122 134 
Q 2881 22 2623 -34 
Q 2366 -91 2075 -91 
Q 1284 -91 818 406 
Q 353 903 353 1747 
Q 353 2603 823 3093 
Q 1294 3584 2113 3584 
Q 2378 3584 2631 3529 
Q 2884 3475 3122 3366 
z
" transform="scale(0.015625)"/>
      </defs>
      <use xlink:href="#DejaVuSans-61"/>
      <use xlink:href="#DejaVuSans-63" x="61.279297"/>
      <use xlink:href="#DejaVuSans-63" x="116.259766"/>
     </g>
    </g>
   </g>
   <g id="matplotlib.axis_2">
    <g id="ytick_1">
     <g id="line2d_6">
      <defs>
       <path id="m5222e8cce7" d="M 0 0 
L -3.5 0 
" style="stroke: #000000; stroke-width: 0.8"/>
      </defs>
      <g>
       <use xlink:href="#m5222e8cce7" x="57.6" y="307.584" style="stroke: #000000; stroke-width: 0.8"/>
      </g>
     </g>
     <g id="text_7">
      <!-- 0.0 -->
      <g transform="translate(34.696875 311.383219) scale(0.1 -0.1)">
       <use xlink:href="#DejaVuSans-30"/>
       <use xlink:href="#DejaVuSans-2e" x="63.623047"/>
       <use xlink:href="#DejaVuSans-30" x="95.410156"/>
      </g>
     </g>
    </g>
    <g id="ytick_2">
     <g id="line2d_7">
      <g>
       <use xlink:href="#m5222e8cce7" x="57.6" y="270.419485" style="stroke: #000000; stroke-width: 0.8"/>
      </g>
     </g>
     <g id="text_8">
      <!-- 0.2 -->
      <g transform="translate(34.696875 274.218704) scale(0.1 -0.1)">
       <defs>
        <path id="DejaVuSans-32" d="M 1228 531 
L 3431 531 
L 3431 0 
L 469 0 
L 469 531 
Q 828 903 1448 1529 
Q 2069 2156 2228 2338 
Q 2531 2678 2651 2914 
Q 2772 3150 2772 3378 
Q 2772 3750 2511 3984 
Q 2250 4219 1831 4219 
Q 1534 4219 1204 4116 
Q 875 4013 500 3803 
L 500 4441 
Q 881 4594 1212 4672 
Q 1544 4750 1819 4750 
Q 2544 4750 2975 4387 
Q 3406 4025 3406 3419 
Q 3406 3131 3298 2873 
Q 3191 2616 2906 2266 
Q 2828 2175 2409 1742 
Q 1991 1309 1228 531 
z
" transform="scale(0.015625)"/>
       </defs>
       <use xlink:href="#DejaVuSans-30"/>
       <use xlink:href="#DejaVuSans-2e" x="63.623047"/>
       <use xlink:href="#DejaVuSans-32" x="95.410156"/>
      </g>
     </g>
    </g>
    <g id="ytick_3">
     <g id="line2d_8">
      <g>
       <use xlink:href="#m5222e8cce7" x="57.6" y="233.25497" style="stroke: #000000; stroke-width: 0.8"/>
      </g>
     </g>
     <g id="text_9">
      <!-- 0.4 -->
      <g transform="translate(34.696875 237.054189) scale(0.1 -0.1)">
       <defs>
        <path id="DejaVuSans-34" d="M 2419 4116 
L 825 1625 
L 2419 1625 
L 2419 4116 
z
M 2253 4666 
L 3047 4666 
L 3047 1625 
L 3713 1625 
L 3713 1100 
L 3047 1100 
L 3047 0 
L 2419 0 
L 2419 1100 
L 313 1100 
L 313 1709 
L 2253 4666 
z
" transform="scale(0.015625)"/>
       </defs>
       <use xlink:href="#DejaVuSans-30"/>
       <use xlink:href="#DejaVuSans-2e" x="63.623047"/>
       <use xlink:href="#DejaVuSans-34" x="95.410156"/>
      </g>
     </g>
    </g>
    <g id="ytick_4">
     <g id="line2d_9">
      <g>
       <use xlink:href="#m5222e8cce7" x="57.6" y="196.090455" style="stroke: #000000; stroke-width: 0.8"/>
      </g>
     </g>
     <g id="text_10">
      <!-- 0.6 -->
      <g transform="translate(34.696875 199.889674) scale(0.1 -0.1)">
       <defs>
        <path id="DejaVuSans-36" d="M 2113 2584 
Q 1688 2584 1439 2293 
Q 1191 2003 1191 1497 
Q 1191 994 1439 701 
Q 1688 409 2113 409 
Q 2538 409 2786 701 
Q 3034 994 3034 1497 
Q 3034 2003 2786 2293 
Q 2538 2584 2113 2584 
z
M 3366 4563 
L 3366 3988 
Q 3128 4100 2886 4159 
Q 2644 4219 2406 4219 
Q 1781 4219 1451 3797 
Q 1122 3375 1075 2522 
Q 1259 2794 1537 2939 
Q 1816 3084 2150 3084 
Q 2853 3084 3261 2657 
Q 3669 2231 3669 1497 
Q 3669 778 3244 343 
Q 2819 -91 2113 -91 
Q 1303 -91 875 529 
Q 447 1150 447 2328 
Q 447 3434 972 4092 
Q 1497 4750 2381 4750 
Q 2619 4750 2861 4703 
Q 3103 4656 3366 4563 
z
" transform="scale(0.015625)"/>
       </defs>
       <use xlink:href="#DejaVuSans-30"/>
       <use xlink:href="#DejaVuSans-2e" x="63.623047"/>
       <use xlink:href="#DejaVuSans-36" x="95.410156"/>
      </g>
     </g>
    </g>
    <g id="ytick_5">
     <g id="line2d_10">
      <g>
       <use xlink:href="#m5222e8cce7" x="57.6" y="158.92594" style="stroke: #000000; stroke-width: 0.8"/>
      </g>
     </g>
     <g id="text_11">
      <!-- 0.8 -->
      <g transform="translate(34.696875 162.725159) scale(0.1 -0.1)">
       <defs>
        <path id="DejaVuSans-38" d="M 2034 2216 
Q 1584 2216 1326 1975 
Q 1069 1734 1069 1313 
Q 1069 891 1326 650 
Q 1584 409 2034 409 
Q 2484 409 2743 651 
Q 3003 894 3003 1313 
Q 3003 1734 2745 1975 
Q 2488 2216 2034 2216 
z
M 1403 2484 
Q 997 2584 770 2862 
Q 544 3141 544 3541 
Q 544 4100 942 4425 
Q 1341 4750 2034 4750 
Q 2731 4750 3128 4425 
Q 3525 4100 3525 3541 
Q 3525 3141 3298 2862 
Q 3072 2584 2669 2484 
Q 3125 2378 3379 2068 
Q 3634 1759 3634 1313 
Q 3634 634 3220 271 
Q 2806 -91 2034 -91 
Q 1263 -91 848 271 
Q 434 634 434 1313 
Q 434 1759 690 2068 
Q 947 2378 1403 2484 
z
M 1172 3481 
Q 1172 3119 1398 2916 
Q 1625 2713 2034 2713 
Q 2441 2713 2670 2916 
Q 2900 3119 2900 3481 
Q 2900 3844 2670 4047 
Q 2441 4250 2034 4250 
Q 1625 4250 1398 4047 
Q 1172 3844 1172 3481 
z
" transform="scale(0.015625)"/>
       </defs>
       <use xlink:href="#DejaVuSans-30"/>
       <use xlink:href="#DejaVuSans-2e" x="63.623047"/>
       <use xlink:href="#DejaVuSans-38" x="95.410156"/>
      </g>
     </g>
    </g>
    <g id="ytick_6">
     <g id="line2d_11">
      <g>
       <use xlink:href="#m5222e8cce7" x="57.6" y="121.761425" style="stroke: #000000; stroke-width: 0.8"/>
      </g>
     </g>
     <g id="text_12">
      <!-- 1.0 -->
      <g transform="translate(34.696875 125.560644) scale(0.1 -0.1)">
       <use xlink:href="#DejaVuSans-31"/>
       <use xlink:href="#DejaVuSans-2e" x="63.623047"/>
       <use xlink:href="#DejaVuSans-30" x="95.410156"/>
      </g>
     </g>
    </g>
    <g id="ytick_7">
     <g id="line2d_12">
      <g>
       <use xlink:href="#m5222e8cce7" x="57.6" y="84.59691" style="stroke: #000000; stroke-width: 0.8"/>
      </g>
     </g>
     <g id="text_13">
      <!-- 1.2 -->
      <g transform="translate(34.696875 88.396129) scale(0.1 -0.1)">
       <use xlink:href="#DejaVuSans-31"/>
       <use xlink:href="#DejaVuSans-2e" x="63.623047"/>
       <use xlink:href="#DejaVuSans-32" x="95.410156"/>
      </g>
     </g>
    </g>
    <g id="ytick_8">
     <g id="line2d_13">
      <g>
       <use xlink:href="#m5222e8cce7" x="57.6" y="47.432395" style="stroke: #000000; stroke-width: 0.8"/>
      </g>
     </g>
     <g id="text_14">
      <!-- 1.4 -->
      <g transform="translate(34.696875 51.231614) scale(0.1 -0.1)">
       <use xlink:href="#DejaVuSans-31"/>
       <use xlink:href="#DejaVuSans-2e" x="63.623047"/>
       <use xlink:href="#DejaVuSans-34" x="95.410156"/>
      </g>
     </g>
    </g>
    <g id="text_15">
     <!-- Density -->
     <g transform="translate(28.617187 193.536594) rotate(-90) scale(0.1 -0.1)">
      <defs>
       <path id="DejaVuSans-44" d="M 1259 4147 
L 1259 519 
L 2022 519 
Q 2988 519 3436 956 
Q 3884 1394 3884 2338 
Q 3884 3275 3436 3711 
Q 2988 4147 2022 4147 
L 1259 4147 
z
M 628 4666 
L 1925 4666 
Q 3281 4666 3915 4102 
Q 4550 3538 4550 2338 
Q 4550 1131 3912 565 
Q 3275 0 1925 0 
L 628 0 
L 628 4666 
z
" transform="scale(0.015625)"/>
       <path id="DejaVuSans-65" d="M 3597 1894 
L 3597 1613 
L 953 1613 
Q 991 1019 1311 708 
Q 1631 397 2203 397 
Q 2534 397 2845 478 
Q 3156 559 3463 722 
L 3463 178 
Q 3153 47 2828 -22 
Q 2503 -91 2169 -91 
Q 1331 -91 842 396 
Q 353 884 353 1716 
Q 353 2575 817 3079 
Q 1281 3584 2069 3584 
Q 2775 3584 3186 3129 
Q 3597 2675 3597 1894 
z
M 3022 2063 
Q 3016 2534 2758 2815 
Q 2500 3097 2075 3097 
Q 1594 3097 1305 2825 
Q 1016 2553 972 2059 
L 3022 2063 
z
" transform="scale(0.015625)"/>
       <path id="DejaVuSans-6e" d="M 3513 2113 
L 3513 0 
L 2938 0 
L 2938 2094 
Q 2938 2591 2744 2837 
Q 2550 3084 2163 3084 
Q 1697 3084 1428 2787 
Q 1159 2491 1159 1978 
L 1159 0 
L 581 0 
L 581 3500 
L 1159 3500 
L 1159 2956 
Q 1366 3272 1645 3428 
Q 1925 3584 2291 3584 
Q 2894 3584 3203 3211 
Q 3513 2838 3513 2113 
z
" transform="scale(0.015625)"/>
       <path id="DejaVuSans-73" d="M 2834 3397 
L 2834 2853 
Q 2591 2978 2328 3040 
Q 2066 3103 1784 3103 
Q 1356 3103 1142 2972 
Q 928 2841 928 2578 
Q 928 2378 1081 2264 
Q 1234 2150 1697 2047 
L 1894 2003 
Q 2506 1872 2764 1633 
Q 3022 1394 3022 966 
Q 3022 478 2636 193 
Q 2250 -91 1575 -91 
Q 1294 -91 989 -36 
Q 684 19 347 128 
L 347 722 
Q 666 556 975 473 
Q 1284 391 1588 391 
Q 1994 391 2212 530 
Q 2431 669 2431 922 
Q 2431 1156 2273 1281 
Q 2116 1406 1581 1522 
L 1381 1569 
Q 847 1681 609 1914 
Q 372 2147 372 2553 
Q 372 3047 722 3315 
Q 1072 3584 1716 3584 
Q 2034 3584 2315 3537 
Q 2597 3491 2834 3397 
z
" transform="scale(0.015625)"/>
       <path id="DejaVuSans-69" d="M 603 3500 
L 1178 3500 
L 1178 0 
L 603 0 
L 603 3500 
z
M 603 4863 
L 1178 4863 
L 1178 4134 
L 603 4134 
L 603 4863 
z
" transform="scale(0.015625)"/>
       <path id="DejaVuSans-74" d="M 1172 4494 
L 1172 3500 
L 2356 3500 
L 2356 3053 
L 1172 3053 
L 1172 1153 
Q 1172 725 1289 603 
Q 1406 481 1766 481 
L 2356 481 
L 2356 0 
L 1766 0 
Q 1100 0 847 248 
Q 594 497 594 1153 
L 594 3053 
L 172 3053 
L 172 3500 
L 594 3500 
L 594 4494 
L 1172 4494 
z
" transform="scale(0.015625)"/>
       <path id="DejaVuSans-79" d="M 2059 -325 
Q 1816 -950 1584 -1140 
Q 1353 -1331 966 -1331 
L 506 -1331 
L 506 -850 
L 844 -850 
Q 1081 -850 1212 -737 
Q 1344 -625 1503 -206 
L 1606 56 
L 191 3500 
L 800 3500 
L 1894 763 
L 2988 3500 
L 3597 3500 
L 2059 -325 
z
" transform="scale(0.015625)"/>
      </defs>
      <use xlink:href="#DejaVuSans-44"/>
      <use xlink:href="#DejaVuSans-65" x="77.001953"/>
      <use xlink:href="#DejaVuSans-6e" x="138.525391"/>
      <use xlink:href="#DejaVuSans-73" x="201.904297"/>
      <use xlink:href="#DejaVuSans-69" x="254.003906"/>
      <use xlink:href="#DejaVuSans-74" x="281.787109"/>
      <use xlink:href="#DejaVuSans-79" x="320.996094"/>
     </g>
    </g>
   </g>
   <g id="line2d_14">
    <path d="M 122.582026 307.581339 
L 139.572958 307.468503 
L 148.068425 307.197602 
L 155.714344 306.717826 
L 163.360264 305.993171 
L 182.05029 304.012743 
L 187.147569 303.855106 
L 193.943942 303.944666 
L 200.740315 303.969619 
L 206.687142 303.723708 
L 213.483515 303.427547 
L 217.731248 303.462988 
L 221.978981 303.722974 
L 227.925807 304.339938 
L 245.766286 306.337767 
L 252.562659 306.858698 
L 260.208579 307.198944 
L 272.102232 307.465098 
L 287.394071 307.576593 
L 291.641804 307.58154 
L 291.641804 307.58154 
" clip-path="url(#pa4cc450d56)" style="fill: none; stroke: #9467bd; stroke-width: 1.5; stroke-linecap: square"/>
   </g>
   <g id="line2d_15">
    <path d="M 125.885342 307.578921 
L 132.883747 307.466244 
L 138.13255 307.139206 
L 141.631753 306.765678 
L 144.256154 306.282951 
L 146.005756 305.773887 
L 147.755357 305.068457 
L 149.504958 304.162314 
L 152.12936 302.504338 
L 155.628562 299.98909 
L 158.252964 297.905892 
L 160.002565 296.313602 
L 161.752166 294.449661 
L 163.501767 292.2439 
L 165.251368 289.685249 
L 167.87577 285.31779 
L 171.374973 278.953123 
L 174.874175 272.134176 
L 177.498577 266.432188 
L 179.248178 262.180242 
L 180.997779 257.490435 
L 183.622181 249.637817 
L 187.121383 238.091468 
L 190.620586 226.54556 
L 192.370187 221.450715 
L 194.119788 217.268426 
L 194.994588 215.607727 
L 195.869389 214.259461 
L 196.74419 213.226048 
L 197.61899 212.497751 
L 198.493791 212.056147 
L 199.368591 211.879039 
L 200.243392 211.945748 
L 201.118193 212.24168 
L 201.992993 212.76119 
L 202.867794 213.508182 
L 203.742594 214.494348 
L 204.617395 215.735445 
L 205.492196 217.246362 
L 206.366996 219.035892 
L 208.116597 223.429172 
L 209.866198 228.726087 
L 214.240201 242.982288 
L 215.989803 247.845894 
L 217.739404 251.881071 
L 219.489005 255.211966 
L 225.612609 265.698568 
L 228.237011 271.125746 
L 231.736213 279.141288 
L 234.360615 285.093336 
L 236.110216 288.700714 
L 237.859817 291.855272 
L 239.609419 294.501214 
L 241.35902 296.670424 
L 243.108621 298.455563 
L 244.858222 299.962932 
L 247.482624 301.864026 
L 250.107026 303.400349 
L 251.856627 304.209493 
L 253.606228 304.838672 
L 256.23063 305.472444 
L 258.855031 305.822501 
L 263.229034 306.088952 
L 270.227439 306.504078 
L 276.351043 306.842129 
L 292.097454 307.433652 
L 298.221058 307.570961 
L 299.970659 307.578935 
L 299.970659 307.578935 
" clip-path="url(#pa4cc450d56)" style="fill: none; stroke: #d62728; stroke-width: 1.5; stroke-linecap: square"/>
   </g>
   <g id="line2d_16">
    <path d="M 107.652741 307.577782 
L 112.804737 307.471881 
L 122.078328 307.062789 
L 130.32152 307.430971 
L 132.382318 307.28112 
L 134.443116 306.970391 
L 137.534313 306.249164 
L 142.686308 304.994687 
L 146.807904 304.158612 
L 147.838303 303.834191 
L 148.868702 303.379025 
L 149.899101 302.737832 
L 150.9295 301.855303 
L 151.959899 300.682965 
L 152.990298 299.185862 
L 154.020697 297.347105 
L 155.051096 295.168211 
L 156.081495 292.664016 
L 158.142293 286.744013 
L 160.203091 279.578478 
L 162.26389 270.87895 
L 164.324688 260.303472 
L 166.385486 247.797539 
L 168.446284 233.638705 
L 171.537481 210.178712 
L 176.689476 168.188779 
L 179.780673 143.252497 
L 181.841471 127.784069 
L 183.902269 113.877281 
L 185.963067 101.738479 
L 188.023865 91.092968 
L 192.145461 71.725339 
L 194.206259 62.851251 
L 195.236658 59.170023 
L 196.267057 56.357023 
L 197.297456 54.642152 
L 198.327855 54.143991 
L 199.358254 54.834927 
L 200.388653 56.54933 
L 201.419052 59.034859 
L 203.47985 65.349741 
L 205.540648 72.846135 
L 206.571047 77.283677 
L 207.601446 82.463189 
L 208.631845 88.567488 
L 209.662244 95.675806 
L 211.723042 112.537378 
L 215.844639 149.218218 
L 217.905437 164.86474 
L 219.966235 177.88069 
L 226.148629 212.956592 
L 230.270225 238.930369 
L 232.331023 250.361144 
L 234.391821 260.291204 
L 236.452619 268.930816 
L 238.513417 276.283781 
L 239.543816 279.42323 
L 240.574215 282.183764 
L 241.604614 284.569721 
L 242.635013 286.604593 
L 243.665412 288.329344 
L 244.695811 289.798006 
L 246.756609 292.206284 
L 249.847806 295.186491 
L 252.939003 297.787906 
L 256.0302 300.071869 
L 259.121397 302.133274 
L 261.182195 303.295984 
L 263.242993 304.207481 
L 265.303792 304.871048 
L 267.36459 305.331943 
L 270.455787 305.735156 
L 279.729378 306.577518 
L 282.820575 306.797886 
L 287.97257 306.848792 
L 293.124565 306.737703 
L 297.246161 306.617581 
L 300.337358 306.776731 
L 308.58055 307.5101 
L 312.702146 307.57769 
L 312.702146 307.57769 
" clip-path="url(#pa4cc450d56)" style="fill: none; stroke: #2ca02c; stroke-width: 1.5; stroke-linecap: square"/>
   </g>
   <g id="line2d_17">
    <path d="M 73.832727 307.578801 
L 81.095172 307.449196 
L 89.568025 307.117604 
L 94.409655 307.308653 
L 100.461693 307.543758 
L 110.144953 307.583814 
L 122.249028 307.4753 
L 127.090658 307.134446 
L 133.142695 306.409143 
L 136.773918 305.814555 
L 141.615548 304.709319 
L 145.24677 303.750725 
L 147.667585 302.819419 
L 148.877993 302.121618 
L 150.0884 301.187866 
L 151.298808 299.965868 
L 152.509216 298.423466 
L 153.719623 296.557901 
L 154.930031 294.400519 
L 157.350846 289.485818 
L 160.982068 281.868297 
L 165.823698 272.138912 
L 167.034106 269.367624 
L 168.244513 266.28208 
L 169.454921 262.815 
L 170.665328 258.919099 
L 171.875736 254.567044 
L 174.296551 244.492422 
L 176.717366 232.844595 
L 181.558996 208.120447 
L 182.769403 202.575587 
L 183.979811 197.650209 
L 185.190218 193.485257 
L 186.400626 190.146617 
L 187.611033 187.597394 
L 188.821441 185.691194 
L 191.242256 182.843787 
L 192.452663 181.403761 
L 193.663071 179.740115 
L 197.294293 174.028175 
L 198.504701 172.586581 
L 199.715108 171.784183 
L 200.925516 171.782564 
L 202.135923 172.644761 
L 203.346331 174.338959 
L 204.556739 176.761735 
L 205.767146 179.770644 
L 208.187961 186.968698 
L 210.608776 195.038535 
L 214.239999 208.019433 
L 222.712851 239.952653 
L 226.344074 253.360542 
L 228.764889 261.513719 
L 231.185704 268.531824 
L 233.606519 274.414384 
L 236.027334 279.465145 
L 238.448149 283.964256 
L 240.868964 288.047378 
L 243.289779 291.759571 
L 245.710594 295.071322 
L 248.131409 297.861613 
L 249.341816 299.015002 
L 250.552224 299.995182 
L 251.762631 300.810081 
L 254.183446 302.052416 
L 265.077114 306.550922 
L 267.497929 307.118355 
L 269.918744 307.408422 
L 273.549967 307.52884 
L 277.181189 307.436103 
L 280.812412 307.138032 
L 285.654042 306.669212 
L 288.074857 306.62699 
L 292.916487 306.891978 
L 297.758117 307.03597 
L 302.599747 307.191155 
L 311.0726 307.549897 
L 314.703822 307.578801 
L 314.703822 307.578801 
" clip-path="url(#pa4cc450d56)" style="fill: none; stroke: #ff7f0e; stroke-width: 1.5; stroke-linecap: square"/>
   </g>
   <g id="line2d_18">
    <path d="M 82.169212 307.580937 
L 96.475054 307.471813 
L 117.139047 307.008469 
L 121.907661 306.617554 
L 125.086737 306.1817 
L 129.855351 305.248553 
L 134.623965 304.011352 
L 137.803041 303.01918 
L 140.982117 301.855021 
L 144.161193 300.457279 
L 147.340269 298.764786 
L 150.519345 296.747473 
L 153.698421 294.427844 
L 158.467035 290.585348 
L 163.235649 286.802907 
L 166.414725 284.622611 
L 169.593801 282.826853 
L 172.772877 281.346185 
L 179.131029 278.554099 
L 183.899643 276.083277 
L 188.668257 273.502365 
L 191.847333 272.004834 
L 195.026409 270.8712 
L 196.615947 270.481355 
L 198.205485 270.228411 
L 199.795023 270.124847 
L 201.384561 270.180988 
L 202.974099 270.403894 
L 204.563637 270.796175 
L 206.153175 271.355029 
L 207.742713 272.071779 
L 210.921789 273.916438 
L 214.100865 276.164346 
L 233.175321 290.842729 
L 242.712549 298.294857 
L 245.891625 300.44163 
L 249.070701 302.216447 
L 252.249777 303.577619 
L 255.428853 304.556739 
L 258.607929 305.233372 
L 261.787005 305.700735 
L 266.555619 306.182474 
L 276.092847 306.876394 
L 282.450999 307.187557 
L 288.809151 307.288068 
L 306.294069 307.191128 
L 319.010373 307.043673 
L 326.958063 307.290083 
L 336.495291 307.535011 
L 349.211595 307.575735 
L 361.927899 307.452436 
L 374.644203 307.316968 
L 398.487273 307.580939 
L 398.487273 307.580939 
" clip-path="url(#pa4cc450d56)" style="fill: none; stroke: #1f77b4; stroke-width: 1.5; stroke-linecap: square"/>
   </g>
   <g id="line2d_19">
    <path d="M 201.890123 307.584 
L 201.890123 41.472 
" clip-path="url(#pa4cc450d56)" style="fill: none; stroke: #1f77b4; stroke-width: 1.5; stroke-linecap: square"/>
   </g>
   <g id="patch_3">
    <path d="M 57.6 307.584 
L 57.6 41.472 
" style="fill: none; stroke: #000000; stroke-width: 0.8; stroke-linejoin: miter; stroke-linecap: square"/>
   </g>
   <g id="patch_4">
    <path d="M 414.72 307.584 
L 414.72 41.472 
" style="fill: none; stroke: #000000; stroke-width: 0.8; stroke-linejoin: miter; stroke-linecap: square"/>
   </g>
   <g id="patch_5">
    <path d="M 57.6 307.584 
L 414.72 307.584 
" style="fill: none; stroke: #000000; stroke-width: 0.8; stroke-linejoin: miter; stroke-linecap: square"/>
   </g>
   <g id="patch_6">
    <path d="M 57.6 41.472 
L 414.72 41.472 
" style="fill: none; stroke: #000000; stroke-width: 0.8; stroke-linejoin: miter; stroke-linecap: square"/>
   </g>
   <g id="legend_1">
    <g id="patch_7">
     <path d="M 297.941875 137.818875 
L 407.72 137.818875 
Q 409.72 137.818875 409.72 135.818875 
L 409.72 48.472 
Q 409.72 46.472 407.72 46.472 
L 297.941875 46.472 
Q 295.941875 46.472 295.941875 48.472 
L 295.941875 135.818875 
Q 295.941875 137.818875 297.941875 137.818875 
z
" style="fill: #ffffff; opacity: 0.8; stroke: #cccccc; stroke-linejoin: miter"/>
    </g>
    <g id="text_16">
     <!-- age_bin -->
     <g transform="translate(333.284063 58.070438) scale(0.1 -0.1)">
      <defs>
       <path id="DejaVuSans-67" d="M 2906 1791 
Q 2906 2416 2648 2759 
Q 2391 3103 1925 3103 
Q 1463 3103 1205 2759 
Q 947 2416 947 1791 
Q 947 1169 1205 825 
Q 1463 481 1925 481 
Q 2391 481 2648 825 
Q 2906 1169 2906 1791 
z
M 3481 434 
Q 3481 -459 3084 -895 
Q 2688 -1331 1869 -1331 
Q 1566 -1331 1297 -1286 
Q 1028 -1241 775 -1147 
L 775 -588 
Q 1028 -725 1275 -790 
Q 1522 -856 1778 -856 
Q 2344 -856 2625 -561 
Q 2906 -266 2906 331 
L 2906 616 
Q 2728 306 2450 153 
Q 2172 0 1784 0 
Q 1141 0 747 490 
Q 353 981 353 1791 
Q 353 2603 747 3093 
Q 1141 3584 1784 3584 
Q 2172 3584 2450 3431 
Q 2728 3278 2906 2969 
L 2906 3500 
L 3481 3500 
L 3481 434 
z
" transform="scale(0.015625)"/>
       <path id="DejaVuSans-5f" d="M 3263 -1063 
L 3263 -1509 
L -63 -1509 
L -63 -1063 
L 3263 -1063 
z
" transform="scale(0.015625)"/>
       <path id="DejaVuSans-62" d="M 3116 1747 
Q 3116 2381 2855 2742 
Q 2594 3103 2138 3103 
Q 1681 3103 1420 2742 
Q 1159 2381 1159 1747 
Q 1159 1113 1420 752 
Q 1681 391 2138 391 
Q 2594 391 2855 752 
Q 3116 1113 3116 1747 
z
M 1159 2969 
Q 1341 3281 1617 3432 
Q 1894 3584 2278 3584 
Q 2916 3584 3314 3078 
Q 3713 2572 3713 1747 
Q 3713 922 3314 415 
Q 2916 -91 2278 -91 
Q 1894 -91 1617 61 
Q 1341 213 1159 525 
L 1159 0 
L 581 0 
L 581 4863 
L 1159 4863 
L 1159 2969 
z
" transform="scale(0.015625)"/>
      </defs>
      <use xlink:href="#DejaVuSans-61"/>
      <use xlink:href="#DejaVuSans-67" x="61.279297"/>
      <use xlink:href="#DejaVuSans-65" x="124.755859"/>
      <use xlink:href="#DejaVuSans-5f" x="186.279297"/>
      <use xlink:href="#DejaVuSans-62" x="236.279297"/>
      <use xlink:href="#DejaVuSans-69" x="299.755859"/>
      <use xlink:href="#DejaVuSans-6e" x="327.539062"/>
     </g>
    </g>
    <g id="line2d_20">
     <path d="M 299.941875 69.526688 
L 309.941875 69.526688 
L 319.941875 69.526688 
" style="fill: none; stroke: #1f77b4; stroke-width: 1.5; stroke-linecap: square"/>
    </g>
    <g id="text_17">
     <!-- (18.005, 33.13] -->
     <g transform="translate(327.941875 73.026688) scale(0.1 -0.1)">
      <defs>
       <path id="DejaVuSans-28" d="M 1984 4856 
Q 1566 4138 1362 3434 
Q 1159 2731 1159 2009 
Q 1159 1288 1364 580 
Q 1569 -128 1984 -844 
L 1484 -844 
Q 1016 -109 783 600 
Q 550 1309 550 2009 
Q 550 2706 781 3412 
Q 1013 4119 1484 4856 
L 1984 4856 
z
" transform="scale(0.015625)"/>
       <path id="DejaVuSans-2c" d="M 750 794 
L 1409 794 
L 1409 256 
L 897 -744 
L 494 -744 
L 750 256 
L 750 794 
z
" transform="scale(0.015625)"/>
       <path id="DejaVuSans-20" transform="scale(0.015625)"/>
       <path id="DejaVuSans-33" d="M 2597 2516 
Q 3050 2419 3304 2112 
Q 3559 1806 3559 1356 
Q 3559 666 3084 287 
Q 2609 -91 1734 -91 
Q 1441 -91 1130 -33 
Q 819 25 488 141 
L 488 750 
Q 750 597 1062 519 
Q 1375 441 1716 441 
Q 2309 441 2620 675 
Q 2931 909 2931 1356 
Q 2931 1769 2642 2001 
Q 2353 2234 1838 2234 
L 1294 2234 
L 1294 2753 
L 1863 2753 
Q 2328 2753 2575 2939 
Q 2822 3125 2822 3475 
Q 2822 3834 2567 4026 
Q 2313 4219 1838 4219 
Q 1578 4219 1281 4162 
Q 984 4106 628 3988 
L 628 4550 
Q 988 4650 1302 4700 
Q 1616 4750 1894 4750 
Q 2613 4750 3031 4423 
Q 3450 4097 3450 3541 
Q 3450 3153 3228 2886 
Q 3006 2619 2597 2516 
z
" transform="scale(0.015625)"/>
       <path id="DejaVuSans-5d" d="M 1947 4863 
L 1947 -844 
L 622 -844 
L 622 -397 
L 1369 -397 
L 1369 4416 
L 622 4416 
L 622 4863 
L 1947 4863 
z
" transform="scale(0.015625)"/>
      </defs>
      <use xlink:href="#DejaVuSans-28"/>
      <use xlink:href="#DejaVuSans-31" x="39.013672"/>
      <use xlink:href="#DejaVuSans-38" x="102.636719"/>
      <use xlink:href="#DejaVuSans-2e" x="166.259766"/>
      <use xlink:href="#DejaVuSans-30" x="198.046875"/>
      <use xlink:href="#DejaVuSans-30" x="261.669922"/>
      <use xlink:href="#DejaVuSans-35" x="325.292969"/>
      <use xlink:href="#DejaVuSans-2c" x="388.916016"/>
      <use xlink:href="#DejaVuSans-20" x="420.703125"/>
      <use xlink:href="#DejaVuSans-33" x="452.490234"/>
      <use xlink:href="#DejaVuSans-33" x="516.113281"/>
      <use xlink:href="#DejaVuSans-2e" x="579.736328"/>
      <use xlink:href="#DejaVuSans-31" x="611.523438"/>
      <use xlink:href="#DejaVuSans-33" x="675.146484"/>
      <use xlink:href="#DejaVuSans-5d" x="738.769531"/>
     </g>
    </g>
    <g id="line2d_21">
     <path d="M 299.941875 84.204813 
L 309.941875 84.204813 
L 319.941875 84.204813 
" style="fill: none; stroke: #ff7f0e; stroke-width: 1.5; stroke-linecap: square"/>
    </g>
    <g id="text_18">
     <!-- (33.13, 48.18] -->
     <g transform="translate(327.941875 87.704813) scale(0.1 -0.1)">
      <use xlink:href="#DejaVuSans-28"/>
      <use xlink:href="#DejaVuSans-33" x="39.013672"/>
      <use xlink:href="#DejaVuSans-33" x="102.636719"/>
      <use xlink:href="#DejaVuSans-2e" x="166.259766"/>
      <use xlink:href="#DejaVuSans-31" x="198.046875"/>
      <use xlink:href="#DejaVuSans-33" x="261.669922"/>
      <use xlink:href="#DejaVuSans-2c" x="325.292969"/>
      <use xlink:href="#DejaVuSans-20" x="357.080078"/>
      <use xlink:href="#DejaVuSans-34" x="388.867188"/>
      <use xlink:href="#DejaVuSans-38" x="452.490234"/>
      <use xlink:href="#DejaVuSans-2e" x="516.113281"/>
      <use xlink:href="#DejaVuSans-31" x="547.900391"/>
      <use xlink:href="#DejaVuSans-38" x="611.523438"/>
      <use xlink:href="#DejaVuSans-5d" x="675.146484"/>
     </g>
    </g>
    <g id="line2d_22">
     <path d="M 299.941875 98.882938 
L 309.941875 98.882938 
L 319.941875 98.882938 
" style="fill: none; stroke: #2ca02c; stroke-width: 1.5; stroke-linecap: square"/>
    </g>
    <g id="text_19">
     <!-- (48.18, 63.23] -->
     <g transform="translate(327.941875 102.382938) scale(0.1 -0.1)">
      <use xlink:href="#DejaVuSans-28"/>
      <use xlink:href="#DejaVuSans-34" x="39.013672"/>
      <use xlink:href="#DejaVuSans-38" x="102.636719"/>
      <use xlink:href="#DejaVuSans-2e" x="166.259766"/>
      <use xlink:href="#DejaVuSans-31" x="198.046875"/>
      <use xlink:href="#DejaVuSans-38" x="261.669922"/>
      <use xlink:href="#DejaVuSans-2c" x="325.292969"/>
      <use xlink:href="#DejaVuSans-20" x="357.080078"/>
      <use xlink:href="#DejaVuSans-36" x="388.867188"/>
      <use xlink:href="#DejaVuSans-33" x="452.490234"/>
      <use xlink:href="#DejaVuSans-2e" x="516.113281"/>
      <use xlink:href="#DejaVuSans-32" x="547.900391"/>
      <use xlink:href="#DejaVuSans-33" x="611.523438"/>
      <use xlink:href="#DejaVuSans-5d" x="675.146484"/>
     </g>
    </g>
    <g id="line2d_23">
     <path d="M 299.941875 113.561063 
L 309.941875 113.561063 
L 319.941875 113.561063 
" style="fill: none; stroke: #d62728; stroke-width: 1.5; stroke-linecap: square"/>
    </g>
    <g id="text_20">
     <!-- (63.23, 78.28] -->
     <g transform="translate(327.941875 117.061063) scale(0.1 -0.1)">
      <defs>
       <path id="DejaVuSans-37" d="M 525 4666 
L 3525 4666 
L 3525 4397 
L 1831 0 
L 1172 0 
L 2766 4134 
L 525 4134 
L 525 4666 
z
" transform="scale(0.015625)"/>
      </defs>
      <use xlink:href="#DejaVuSans-28"/>
      <use xlink:href="#DejaVuSans-36" x="39.013672"/>
      <use xlink:href="#DejaVuSans-33" x="102.636719"/>
      <use xlink:href="#DejaVuSans-2e" x="166.259766"/>
      <use xlink:href="#DejaVuSans-32" x="198.046875"/>
      <use xlink:href="#DejaVuSans-33" x="261.669922"/>
      <use xlink:href="#DejaVuSans-2c" x="325.292969"/>
      <use xlink:href="#DejaVuSans-20" x="357.080078"/>
      <use xlink:href="#DejaVuSans-37" x="388.867188"/>
      <use xlink:href="#DejaVuSans-38" x="452.490234"/>
      <use xlink:href="#DejaVuSans-2e" x="516.113281"/>
      <use xlink:href="#DejaVuSans-32" x="547.900391"/>
      <use xlink:href="#DejaVuSans-38" x="611.523438"/>
      <use xlink:href="#DejaVuSans-5d" x="675.146484"/>
     </g>
    </g>
    <g id="line2d_24">
     <path d="M 299.941875 128.239188 
L 309.941875 128.239188 
L 319.941875 128.239188 
" style="fill: none; stroke: #9467bd; stroke-width: 1.5; stroke-linecap: square"/>
    </g>
    <g id="text_21">
     <!-- (78.28, 93.33] -->
     <g transform="translate(327.941875 131.739188) scale(0.1 -0.1)">
      <defs>
       <path id="DejaVuSans-39" d="M 703 97 
L 703 672 
Q 941 559 1184 500 
Q 1428 441 1663 441 
Q 2288 441 2617 861 
Q 2947 1281 2994 2138 
Q 2813 1869 2534 1725 
Q 2256 1581 1919 1581 
Q 1219 1581 811 2004 
Q 403 2428 403 3163 
Q 403 3881 828 4315 
Q 1253 4750 1959 4750 
Q 2769 4750 3195 4129 
Q 3622 3509 3622 2328 
Q 3622 1225 3098 567 
Q 2575 -91 1691 -91 
Q 1453 -91 1209 -44 
Q 966 3 703 97 
z
M 1959 2075 
Q 2384 2075 2632 2365 
Q 2881 2656 2881 3163 
Q 2881 3666 2632 3958 
Q 2384 4250 1959 4250 
Q 1534 4250 1286 3958 
Q 1038 3666 1038 3163 
Q 1038 2656 1286 2365 
Q 1534 2075 1959 2075 
z
" transform="scale(0.015625)"/>
      </defs>
      <use xlink:href="#DejaVuSans-28"/>
      <use xlink:href="#DejaVuSans-37" x="39.013672"/>
      <use xlink:href="#DejaVuSans-38" x="102.636719"/>
      <use xlink:href="#DejaVuSans-2e" x="166.259766"/>
      <use xlink:href="#DejaVuSans-32" x="198.046875"/>
      <use xlink:href="#DejaVuSans-38" x="261.669922"/>
      <use xlink:href="#DejaVuSans-2c" x="325.292969"/>
      <use xlink:href="#DejaVuSans-20" x="357.080078"/>
      <use xlink:href="#DejaVuSans-39" x="388.867188"/>
      <use xlink:href="#DejaVuSans-33" x="452.490234"/>
      <use xlink:href="#DejaVuSans-2e" x="516.113281"/>
      <use xlink:href="#DejaVuSans-33" x="547.900391"/>
      <use xlink:href="#DejaVuSans-33" x="611.523438"/>
      <use xlink:href="#DejaVuSans-5d" x="675.146484"/>
     </g>
    </g>
   </g>
  </g>
 </g>
 <defs>
  <clipPath id="pa4cc450d56">
   <rect x="57.6" y="41.472" width="357.12" height="266.112"/>
  </clipPath>
 </defs>
</svg>
