<?xml version="1.0" encoding="utf-8" standalone="no"?>
<!DOCTYPE svg PUBLIC "-//W3C//DTD SVG 1.1//EN"
  "http://www.w3.org/Graphics/SVG/1.1/DTD/svg11.dtd">
<svg xmlns:xlink="http://www.w3.org/1999/xlink" width="460.8pt" height="345.6pt" viewBox="0 0 460.8 345.6" xmlns="http://www.w3.org/2000/svg" version="1.1">
 <metadata>
  <rdf:RDF xmlns:dc="http://purl.org/dc/elements/1.1/" xmlns:cc="http://creativecommons.org/ns#" xmlns:rdf="http://www.w3.org/1999/02/22-rdf-syntax-ns#">
   <cc:Work>
    <dc:type rdf:resource="http://purl.org/dc/dcmitype/StillImage"/>
    <dc:date>2023-02-10T11:03:30.575899</dc:date>
    <dc:format>image/svg+xml</dc:format>
    <dc:creator>
     <cc:Agent>
      <dc:title>Matplotlib v3.6.3, https://matplotlib.org/</dc:title>
     </cc:Agent>
    </dc:creator>
   </cc:Work>
  </rdf:RDF>
 </metadata>
 <defs>
  <style type="text/css">*{stroke-linejoin: round; stroke-linecap: butt}</style>
 </defs>
 <g id="figure_1">
  <g id="patch_1">
   <path d="M 0 345.6 
L 460.8 345.6 
L 460.8 0 
L 0 0 
z
" style="fill: #ffffff"/>
  </g>
  <g id="axes_1">
   <g id="patch_2">
    <path d="M 57.6 307.584 
L 414.72 307.584 
L 414.72 41.472 
L 57.6 41.472 
z
" style="fill: #ffffff"/>
   </g>
   <g id="matplotlib.axis_1">
    <g id="xtick_1">
     <g id="line2d_1">
      <defs>
       <path id="ma3bb50bf16" d="M 0 0 
L 0 3.5 
" style="stroke: #000000; stroke-width: 0.8"/>
      </defs>
      <g>
       <use xlink:href="#ma3bb50bf16" x="59.585614" y="307.584" style="stroke: #000000; stroke-width: 0.8"/>
      </g>
     </g>
     <g id="text_1">
      <!-- −1.0 -->
      <g transform="translate(47.444208 322.182437) scale(0.1 -0.1)">
       <defs>
        <path id="DejaVuSans-2212" d="M 678 2272 
L 4684 2272 
L 4684 1741 
L 678 1741 
L 678 2272 
z
" transform="scale(0.015625)"/>
        <path id="DejaVuSans-31" d="M 794 531 
L 1825 531 
L 1825 4091 
L 703 3866 
L 703 4441 
L 1819 4666 
L 2450 4666 
L 2450 531 
L 3481 531 
L 3481 0 
L 794 0 
L 794 531 
z
" transform="scale(0.015625)"/>
        <path id="DejaVuSans-2e" d="M 684 794 
L 1344 794 
L 1344 0 
L 684 0 
L 684 794 
z
" transform="scale(0.015625)"/>
        <path id="DejaVuSans-30" d="M 2034 4250 
Q 1547 4250 1301 3770 
Q 1056 3291 1056 2328 
Q 1056 1369 1301 889 
Q 1547 409 2034 409 
Q 2525 409 2770 889 
Q 3016 1369 3016 2328 
Q 3016 3291 2770 3770 
Q 2525 4250 2034 4250 
z
M 2034 4750 
Q 2819 4750 3233 4129 
Q 3647 3509 3647 2328 
Q 3647 1150 3233 529 
Q 2819 -91 2034 -91 
Q 1250 -91 836 529 
Q 422 1150 422 2328 
Q 422 3509 836 4129 
Q 1250 4750 2034 4750 
z
" transform="scale(0.015625)"/>
       </defs>
       <use xlink:href="#DejaVuSans-2212"/>
       <use xlink:href="#DejaVuSans-31" x="83.789062"/>
       <use xlink:href="#DejaVuSans-2e" x="147.412109"/>
       <use xlink:href="#DejaVuSans-30" x="179.199219"/>
      </g>
     </g>
    </g>
    <g id="xtick_2">
     <g id="line2d_2">
      <g>
       <use xlink:href="#ma3bb50bf16" x="131.255606" y="307.584" style="stroke: #000000; stroke-width: 0.8"/>
      </g>
     </g>
     <g id="text_2">
      <!-- −0.5 -->
      <g transform="translate(119.114199 322.182437) scale(0.1 -0.1)">
       <defs>
        <path id="DejaVuSans-35" d="M 691 4666 
L 3169 4666 
L 3169 4134 
L 1269 4134 
L 1269 2991 
Q 1406 3038 1543 3061 
Q 1681 3084 1819 3084 
Q 2600 3084 3056 2656 
Q 3513 2228 3513 1497 
Q 3513 744 3044 326 
Q 2575 -91 1722 -91 
Q 1428 -91 1123 -41 
Q 819 9 494 109 
L 494 744 
Q 775 591 1075 516 
Q 1375 441 1709 441 
Q 2250 441 2565 725 
Q 2881 1009 2881 1497 
Q 2881 1984 2565 2268 
Q 2250 2553 1709 2553 
Q 1456 2553 1204 2497 
Q 953 2441 691 2322 
L 691 4666 
z
" transform="scale(0.015625)"/>
       </defs>
       <use xlink:href="#DejaVuSans-2212"/>
       <use xlink:href="#DejaVuSans-30" x="83.789062"/>
       <use xlink:href="#DejaVuSans-2e" x="147.412109"/>
       <use xlink:href="#DejaVuSans-35" x="179.199219"/>
      </g>
     </g>
    </g>
    <g id="xtick_3">
     <g id="line2d_3">
      <g>
       <use xlink:href="#ma3bb50bf16" x="202.925597" y="307.584" style="stroke: #000000; stroke-width: 0.8"/>
      </g>
     </g>
     <g id="text_3">
      <!-- 0.0 -->
      <g transform="translate(194.974034 322.182437) scale(0.1 -0.1)">
       <use xlink:href="#DejaVuSans-30"/>
       <use xlink:href="#DejaVuSans-2e" x="63.623047"/>
       <use xlink:href="#DejaVuSans-30" x="95.410156"/>
      </g>
     </g>
    </g>
    <g id="xtick_4">
     <g id="line2d_4">
      <g>
       <use xlink:href="#ma3bb50bf16" x="274.595588" y="307.584" style="stroke: #000000; stroke-width: 0.8"/>
      </g>
     </g>
     <g id="text_4">
      <!-- 0.5 -->
      <g transform="translate(266.644025 322.182437) scale(0.1 -0.1)">
       <use xlink:href="#DejaVuSans-30"/>
       <use xlink:href="#DejaVuSans-2e" x="63.623047"/>
       <use xlink:href="#DejaVuSans-35" x="95.410156"/>
      </g>
     </g>
    </g>
    <g id="xtick_5">
     <g id="line2d_5">
      <g>
       <use xlink:href="#ma3bb50bf16" x="346.265579" y="307.584" style="stroke: #000000; stroke-width: 0.8"/>
      </g>
     </g>
     <g id="text_5">
      <!-- 1.0 -->
      <g transform="translate(338.314017 322.182437) scale(0.1 -0.1)">
       <use xlink:href="#DejaVuSans-31"/>
       <use xlink:href="#DejaVuSans-2e" x="63.623047"/>
       <use xlink:href="#DejaVuSans-30" x="95.410156"/>
      </g>
     </g>
    </g>
    <g id="text_6">
     <!-- acc -->
     <g transform="translate(227.5975 335.860562) scale(0.1 -0.1)">
      <defs>
       <path id="DejaVuSans-61" d="M 2194 1759 
Q 1497 1759 1228 1600 
Q 959 1441 959 1056 
Q 959 750 1161 570 
Q 1363 391 1709 391 
Q 2188 391 2477 730 
Q 2766 1069 2766 1631 
L 2766 1759 
L 2194 1759 
z
M 3341 1997 
L 3341 0 
L 2766 0 
L 2766 531 
Q 2569 213 2275 61 
Q 1981 -91 1556 -91 
Q 1019 -91 701 211 
Q 384 513 384 1019 
Q 384 1609 779 1909 
Q 1175 2209 1959 2209 
L 2766 2209 
L 2766 2266 
Q 2766 2663 2505 2880 
Q 2244 3097 1772 3097 
Q 1472 3097 1187 3025 
Q 903 2953 641 2809 
L 641 3341 
Q 956 3463 1253 3523 
Q 1550 3584 1831 3584 
Q 2591 3584 2966 3190 
Q 3341 2797 3341 1997 
z
" transform="scale(0.015625)"/>
       <path id="DejaVuSans-63" d="M 3122 3366 
L 3122 2828 
Q 2878 2963 2633 3030 
Q 2388 3097 2138 3097 
Q 1578 3097 1268 2742 
Q 959 2388 959 1747 
Q 959 1106 1268 751 
Q 1578 397 2138 397 
Q 2388 397 2633 464 
Q 2878 531 3122 666 
L 3122 134 
Q 2881 22 2623 -34 
Q 2366 -91 2075 -91 
Q 1284 -91 818 406 
Q 353 903 353 1747 
Q 353 2603 823 3093 
Q 1294 3584 2113 3584 
Q 2378 3584 2631 3529 
Q 2884 3475 3122 3366 
z
" transform="scale(0.015625)"/>
      </defs>
      <use xlink:href="#DejaVuSans-61"/>
      <use xlink:href="#DejaVuSans-63" x="61.279297"/>
      <use xlink:href="#DejaVuSans-63" x="116.259766"/>
     </g>
    </g>
   </g>
   <g id="matplotlib.axis_2">
    <g id="ytick_1">
     <g id="line2d_6">
      <defs>
       <path id="maaeec06b8e" d="M 0 0 
L -3.5 0 
" style="stroke: #000000; stroke-width: 0.8"/>
      </defs>
      <g>
       <use xlink:href="#maaeec06b8e" x="57.6" y="307.584" style="stroke: #000000; stroke-width: 0.8"/>
      </g>
     </g>
     <g id="text_7">
      <!-- 0.0 -->
      <g transform="translate(34.696875 311.383219) scale(0.1 -0.1)">
       <use xlink:href="#DejaVuSans-30"/>
       <use xlink:href="#DejaVuSans-2e" x="63.623047"/>
       <use xlink:href="#DejaVuSans-30" x="95.410156"/>
      </g>
     </g>
    </g>
    <g id="ytick_2">
     <g id="line2d_7">
      <g>
       <use xlink:href="#maaeec06b8e" x="57.6" y="271.645019" style="stroke: #000000; stroke-width: 0.8"/>
      </g>
     </g>
     <g id="text_8">
      <!-- 0.2 -->
      <g transform="translate(34.696875 275.444238) scale(0.1 -0.1)">
       <defs>
        <path id="DejaVuSans-32" d="M 1228 531 
L 3431 531 
L 3431 0 
L 469 0 
L 469 531 
Q 828 903 1448 1529 
Q 2069 2156 2228 2338 
Q 2531 2678 2651 2914 
Q 2772 3150 2772 3378 
Q 2772 3750 2511 3984 
Q 2250 4219 1831 4219 
Q 1534 4219 1204 4116 
Q 875 4013 500 3803 
L 500 4441 
Q 881 4594 1212 4672 
Q 1544 4750 1819 4750 
Q 2544 4750 2975 4387 
Q 3406 4025 3406 3419 
Q 3406 3131 3298 2873 
Q 3191 2616 2906 2266 
Q 2828 2175 2409 1742 
Q 1991 1309 1228 531 
z
" transform="scale(0.015625)"/>
       </defs>
       <use xlink:href="#DejaVuSans-30"/>
       <use xlink:href="#DejaVuSans-2e" x="63.623047"/>
       <use xlink:href="#DejaVuSans-32" x="95.410156"/>
      </g>
     </g>
    </g>
    <g id="ytick_3">
     <g id="line2d_8">
      <g>
       <use xlink:href="#maaeec06b8e" x="57.6" y="235.706038" style="stroke: #000000; stroke-width: 0.8"/>
      </g>
     </g>
     <g id="text_9">
      <!-- 0.4 -->
      <g transform="translate(34.696875 239.505257) scale(0.1 -0.1)">
       <defs>
        <path id="DejaVuSans-34" d="M 2419 4116 
L 825 1625 
L 2419 1625 
L 2419 4116 
z
M 2253 4666 
L 3047 4666 
L 3047 1625 
L 3713 1625 
L 3713 1100 
L 3047 1100 
L 3047 0 
L 2419 0 
L 2419 1100 
L 313 1100 
L 313 1709 
L 2253 4666 
z
" transform="scale(0.015625)"/>
       </defs>
       <use xlink:href="#DejaVuSans-30"/>
       <use xlink:href="#DejaVuSans-2e" x="63.623047"/>
       <use xlink:href="#DejaVuSans-34" x="95.410156"/>
      </g>
     </g>
    </g>
    <g id="ytick_4">
     <g id="line2d_9">
      <g>
       <use xlink:href="#maaeec06b8e" x="57.6" y="199.767058" style="stroke: #000000; stroke-width: 0.8"/>
      </g>
     </g>
     <g id="text_10">
      <!-- 0.6 -->
      <g transform="translate(34.696875 203.566276) scale(0.1 -0.1)">
       <defs>
        <path id="DejaVuSans-36" d="M 2113 2584 
Q 1688 2584 1439 2293 
Q 1191 2003 1191 1497 
Q 1191 994 1439 701 
Q 1688 409 2113 409 
Q 2538 409 2786 701 
Q 3034 994 3034 1497 
Q 3034 2003 2786 2293 
Q 2538 2584 2113 2584 
z
M 3366 4563 
L 3366 3988 
Q 3128 4100 2886 4159 
Q 2644 4219 2406 4219 
Q 1781 4219 1451 3797 
Q 1122 3375 1075 2522 
Q 1259 2794 1537 2939 
Q 1816 3084 2150 3084 
Q 2853 3084 3261 2657 
Q 3669 2231 3669 1497 
Q 3669 778 3244 343 
Q 2819 -91 2113 -91 
Q 1303 -91 875 529 
Q 447 1150 447 2328 
Q 447 3434 972 4092 
Q 1497 4750 2381 4750 
Q 2619 4750 2861 4703 
Q 3103 4656 3366 4563 
z
" transform="scale(0.015625)"/>
       </defs>
       <use xlink:href="#DejaVuSans-30"/>
       <use xlink:href="#DejaVuSans-2e" x="63.623047"/>
       <use xlink:href="#DejaVuSans-36" x="95.410156"/>
      </g>
     </g>
    </g>
    <g id="ytick_5">
     <g id="line2d_10">
      <g>
       <use xlink:href="#maaeec06b8e" x="57.6" y="163.828077" style="stroke: #000000; stroke-width: 0.8"/>
      </g>
     </g>
     <g id="text_11">
      <!-- 0.8 -->
      <g transform="translate(34.696875 167.627296) scale(0.1 -0.1)">
       <defs>
        <path id="DejaVuSans-38" d="M 2034 2216 
Q 1584 2216 1326 1975 
Q 1069 1734 1069 1313 
Q 1069 891 1326 650 
Q 1584 409 2034 409 
Q 2484 409 2743 651 
Q 3003 894 3003 1313 
Q 3003 1734 2745 1975 
Q 2488 2216 2034 2216 
z
M 1403 2484 
Q 997 2584 770 2862 
Q 544 3141 544 3541 
Q 544 4100 942 4425 
Q 1341 4750 2034 4750 
Q 2731 4750 3128 4425 
Q 3525 4100 3525 3541 
Q 3525 3141 3298 2862 
Q 3072 2584 2669 2484 
Q 3125 2378 3379 2068 
Q 3634 1759 3634 1313 
Q 3634 634 3220 271 
Q 2806 -91 2034 -91 
Q 1263 -91 848 271 
Q 434 634 434 1313 
Q 434 1759 690 2068 
Q 947 2378 1403 2484 
z
M 1172 3481 
Q 1172 3119 1398 2916 
Q 1625 2713 2034 2713 
Q 2441 2713 2670 2916 
Q 2900 3119 2900 3481 
Q 2900 3844 2670 4047 
Q 2441 4250 2034 4250 
Q 1625 4250 1398 4047 
Q 1172 3844 1172 3481 
z
" transform="scale(0.015625)"/>
       </defs>
       <use xlink:href="#DejaVuSans-30"/>
       <use xlink:href="#DejaVuSans-2e" x="63.623047"/>
       <use xlink:href="#DejaVuSans-38" x="95.410156"/>
      </g>
     </g>
    </g>
    <g id="ytick_6">
     <g id="line2d_11">
      <g>
       <use xlink:href="#maaeec06b8e" x="57.6" y="127.889096" style="stroke: #000000; stroke-width: 0.8"/>
      </g>
     </g>
     <g id="text_12">
      <!-- 1.0 -->
      <g transform="translate(34.696875 131.688315) scale(0.1 -0.1)">
       <use xlink:href="#DejaVuSans-31"/>
       <use xlink:href="#DejaVuSans-2e" x="63.623047"/>
       <use xlink:href="#DejaVuSans-30" x="95.410156"/>
      </g>
     </g>
    </g>
    <g id="ytick_7">
     <g id="line2d_12">
      <g>
       <use xlink:href="#maaeec06b8e" x="57.6" y="91.950115" style="stroke: #000000; stroke-width: 0.8"/>
      </g>
     </g>
     <g id="text_13">
      <!-- 1.2 -->
      <g transform="translate(34.696875 95.749334) scale(0.1 -0.1)">
       <use xlink:href="#DejaVuSans-31"/>
       <use xlink:href="#DejaVuSans-2e" x="63.623047"/>
       <use xlink:href="#DejaVuSans-32" x="95.410156"/>
      </g>
     </g>
    </g>
    <g id="ytick_8">
     <g id="line2d_13">
      <g>
       <use xlink:href="#maaeec06b8e" x="57.6" y="56.011135" style="stroke: #000000; stroke-width: 0.8"/>
      </g>
     </g>
     <g id="text_14">
      <!-- 1.4 -->
      <g transform="translate(34.696875 59.810353) scale(0.1 -0.1)">
       <use xlink:href="#DejaVuSans-31"/>
       <use xlink:href="#DejaVuSans-2e" x="63.623047"/>
       <use xlink:href="#DejaVuSans-34" x="95.410156"/>
      </g>
     </g>
    </g>
    <g id="text_15">
     <!-- Density -->
     <g transform="translate(28.617187 193.536594) rotate(-90) scale(0.1 -0.1)">
      <defs>
       <path id="DejaVuSans-44" d="M 1259 4147 
L 1259 519 
L 2022 519 
Q 2988 519 3436 956 
Q 3884 1394 3884 2338 
Q 3884 3275 3436 3711 
Q 2988 4147 2022 4147 
L 1259 4147 
z
M 628 4666 
L 1925 4666 
Q 3281 4666 3915 4102 
Q 4550 3538 4550 2338 
Q 4550 1131 3912 565 
Q 3275 0 1925 0 
L 628 0 
L 628 4666 
z
" transform="scale(0.015625)"/>
       <path id="DejaVuSans-65" d="M 3597 1894 
L 3597 1613 
L 953 1613 
Q 991 1019 1311 708 
Q 1631 397 2203 397 
Q 2534 397 2845 478 
Q 3156 559 3463 722 
L 3463 178 
Q 3153 47 2828 -22 
Q 2503 -91 2169 -91 
Q 1331 -91 842 396 
Q 353 884 353 1716 
Q 353 2575 817 3079 
Q 1281 3584 2069 3584 
Q 2775 3584 3186 3129 
Q 3597 2675 3597 1894 
z
M 3022 2063 
Q 3016 2534 2758 2815 
Q 2500 3097 2075 3097 
Q 1594 3097 1305 2825 
Q 1016 2553 972 2059 
L 3022 2063 
z
" transform="scale(0.015625)"/>
       <path id="DejaVuSans-6e" d="M 3513 2113 
L 3513 0 
L 2938 0 
L 2938 2094 
Q 2938 2591 2744 2837 
Q 2550 3084 2163 3084 
Q 1697 3084 1428 2787 
Q 1159 2491 1159 1978 
L 1159 0 
L 581 0 
L 581 3500 
L 1159 3500 
L 1159 2956 
Q 1366 3272 1645 3428 
Q 1925 3584 2291 3584 
Q 2894 3584 3203 3211 
Q 3513 2838 3513 2113 
z
" transform="scale(0.015625)"/>
       <path id="DejaVuSans-73" d="M 2834 3397 
L 2834 2853 
Q 2591 2978 2328 3040 
Q 2066 3103 1784 3103 
Q 1356 3103 1142 2972 
Q 928 2841 928 2578 
Q 928 2378 1081 2264 
Q 1234 2150 1697 2047 
L 1894 2003 
Q 2506 1872 2764 1633 
Q 3022 1394 3022 966 
Q 3022 478 2636 193 
Q 2250 -91 1575 -91 
Q 1294 -91 989 -36 
Q 684 19 347 128 
L 347 722 
Q 666 556 975 473 
Q 1284 391 1588 391 
Q 1994 391 2212 530 
Q 2431 669 2431 922 
Q 2431 1156 2273 1281 
Q 2116 1406 1581 1522 
L 1381 1569 
Q 847 1681 609 1914 
Q 372 2147 372 2553 
Q 372 3047 722 3315 
Q 1072 3584 1716 3584 
Q 2034 3584 2315 3537 
Q 2597 3491 2834 3397 
z
" transform="scale(0.015625)"/>
       <path id="DejaVuSans-69" d="M 603 3500 
L 1178 3500 
L 1178 0 
L 603 0 
L 603 3500 
z
M 603 4863 
L 1178 4863 
L 1178 4134 
L 603 4134 
L 603 4863 
z
" transform="scale(0.015625)"/>
       <path id="DejaVuSans-74" d="M 1172 4494 
L 1172 3500 
L 2356 3500 
L 2356 3053 
L 1172 3053 
L 1172 1153 
Q 1172 725 1289 603 
Q 1406 481 1766 481 
L 2356 481 
L 2356 0 
L 1766 0 
Q 1100 0 847 248 
Q 594 497 594 1153 
L 594 3053 
L 172 3053 
L 172 3500 
L 594 3500 
L 594 4494 
L 1172 4494 
z
" transform="scale(0.015625)"/>
       <path id="DejaVuSans-79" d="M 2059 -325 
Q 1816 -950 1584 -1140 
Q 1353 -1331 966 -1331 
L 506 -1331 
L 506 -850 
L 844 -850 
Q 1081 -850 1212 -737 
Q 1344 -625 1503 -206 
L 1606 56 
L 191 3500 
L 800 3500 
L 1894 763 
L 2988 3500 
L 3597 3500 
L 2059 -325 
z
" transform="scale(0.015625)"/>
      </defs>
      <use xlink:href="#DejaVuSans-44"/>
      <use xlink:href="#DejaVuSans-65" x="77.001953"/>
      <use xlink:href="#DejaVuSans-6e" x="138.525391"/>
      <use xlink:href="#DejaVuSans-73" x="201.904297"/>
      <use xlink:href="#DejaVuSans-69" x="254.003906"/>
      <use xlink:href="#DejaVuSans-74" x="281.787109"/>
      <use xlink:href="#DejaVuSans-79" x="320.996094"/>
     </g>
    </g>
   </g>
   <g id="line2d_14">
    <path d="M 128.226303 307.580802 
L 143.030903 307.470495 
L 150.433204 307.203956 
L 157.013026 306.742412 
L 165.237804 305.906399 
L 180.042404 304.326097 
L 184.977271 304.016297 
L 189.912138 303.913388 
L 204.716738 303.843726 
L 214.586471 303.502207 
L 218.69886 303.619523 
L 223.633727 304.01546 
L 250.775494 306.717659 
L 258.177795 307.103435 
L 268.870006 307.399634 
L 282.852128 307.562176 
L 291.899384 307.581582 
L 291.899384 307.581582 
" clip-path="url(#p08bd83a929)" style="fill: none; stroke: #9467bd; stroke-width: 1.5; stroke-linecap: square"/>
   </g>
   <g id="line2d_15">
    <path d="M 128.708692 307.579003 
L 135.510505 307.470075 
L 139.761637 307.211028 
L 143.162544 306.844346 
L 145.713223 306.390013 
L 147.413676 305.93111 
L 149.114129 305.308247 
L 151.664809 304.073062 
L 155.065715 302.096098 
L 158.466621 299.924286 
L 160.167074 298.606411 
L 161.867527 296.953696 
L 163.56798 294.853026 
L 165.268434 292.281485 
L 167.819113 287.780621 
L 172.070246 280.125978 
L 177.171605 271.336318 
L 178.872058 267.885353 
L 180.572511 263.950227 
L 182.272964 259.494503 
L 184.823644 251.93166 
L 189.074777 238.100417 
L 191.625456 230.028955 
L 193.325909 225.136924 
L 195.026362 220.895951 
L 196.726815 217.52059 
L 197.577042 216.20347 
L 198.427268 215.142663 
L 199.277495 214.335854 
L 200.127721 213.776046 
L 200.977948 213.455178 
L 201.828175 213.367946 
L 202.678401 213.514829 
L 203.528628 213.903462 
L 204.378854 214.547877 
L 205.229081 215.465661 
L 206.079307 216.673542 
L 206.929534 218.182329 
L 207.77976 219.992221 
L 209.480213 224.444821 
L 211.180666 229.743301 
L 215.431799 243.614371 
L 217.132252 248.398242 
L 218.832705 252.571643 
L 221.383385 258.0318 
L 231.586103 278.775096 
L 235.837236 287.619281 
L 237.537689 290.761838 
L 239.238142 293.45531 
L 240.938595 295.645847 
L 242.639048 297.384745 
L 244.339501 298.796995 
L 246.890181 300.593949 
L 250.291087 302.729133 
L 252.841767 304.092971 
L 255.392446 305.15196 
L 257.943126 305.89015 
L 260.493806 306.330036 
L 263.044485 306.513218 
L 275.797883 306.712332 
L 281.749469 306.735691 
L 286.000602 307.064603 
L 291.101961 307.450131 
L 296.20332 307.569901 
L 297.903773 307.578575 
L 297.903773 307.578575 
" clip-path="url(#p08bd83a929)" style="fill: none; stroke: #d62728; stroke-width: 1.5; stroke-linecap: square"/>
   </g>
   <g id="line2d_16">
    <path d="M 109.674412 307.577858 
L 114.790527 307.469602 
L 122.97631 307.04027 
L 127.069201 307.296662 
L 130.13887 307.444934 
L 133.208538 307.357265 
L 136.278207 306.986908 
L 139.347875 306.372785 
L 144.46399 305.22727 
L 147.533658 304.797277 
L 149.580104 304.488173 
L 150.603327 304.210347 
L 151.62655 303.773738 
L 152.649773 303.115952 
L 153.672996 302.177732 
L 154.696218 300.908879 
L 155.719441 299.272998 
L 156.742664 297.250024 
L 157.765887 294.835645 
L 158.78911 292.037299 
L 159.812333 288.867309 
L 161.858778 281.439064 
L 163.905224 272.492178 
L 165.95167 261.829587 
L 167.998116 249.31793 
L 170.044561 235.066714 
L 173.11423 211.380592 
L 180.27679 154.941376 
L 184.369681 123.954162 
L 186.416127 110.069703 
L 188.462573 97.922856 
L 190.509019 87.380223 
L 193.578687 73.208611 
L 195.625133 64.492159 
L 196.648356 60.685587 
L 197.671579 57.548786 
L 198.694802 55.312392 
L 199.718024 54.149678 
L 200.741247 54.143998 
L 201.76447 55.283641 
L 202.787693 57.483919 
L 203.810916 60.627627 
L 204.834139 64.609617 
L 205.857362 69.370154 
L 206.880585 74.90497 
L 207.903807 81.247086 
L 208.92703 88.425228 
L 210.973476 105.08901 
L 215.066367 141.186706 
L 217.112813 156.273402 
L 219.159259 168.895298 
L 222.228928 186.932678 
L 224.275373 200.248051 
L 228.368265 227.914449 
L 230.41471 240.032396 
L 232.461156 250.548137 
L 234.507602 259.904791 
L 236.554048 268.341067 
L 238.600493 275.641323 
L 240.646939 281.580279 
L 241.670162 284.054952 
L 242.693385 286.237036 
L 244.739831 289.843949 
L 246.786276 292.63001 
L 248.832722 294.845299 
L 250.879168 296.725598 
L 252.925614 298.387168 
L 254.972059 299.847106 
L 258.041728 301.709095 
L 261.111396 303.227459 
L 263.157842 304.011232 
L 265.204288 304.613323 
L 268.273957 305.249036 
L 274.413294 306.093798 
L 278.506185 306.576604 
L 282.599077 306.754327 
L 292.831305 306.863901 
L 299.993865 306.603866 
L 303.063534 306.91521 
L 307.156425 307.383747 
L 311.249317 307.55867 
L 313.295763 307.577585 
L 313.295763 307.577585 
" clip-path="url(#p08bd83a929)" style="fill: none; stroke: #2ca02c; stroke-width: 1.5; stroke-linecap: square"/>
   </g>
   <g id="line2d_17">
    <path d="M 73.832727 307.57881 
L 80.969002 307.444772 
L 89.294656 307.120618 
L 94.052172 307.326363 
L 99.999068 307.550393 
L 110.70348 307.583966 
L 124.97603 307.475451 
L 130.922925 307.10509 
L 135.680442 306.662004 
L 138.0592 306.278669 
L 141.627337 305.411465 
L 148.763612 303.451473 
L 149.952991 302.932519 
L 151.14237 302.240573 
L 152.33175 301.328904 
L 153.521129 300.160684 
L 154.710508 298.712323 
L 155.899887 296.976475 
L 157.089266 294.965416 
L 159.468024 290.280408 
L 165.41492 277.796693 
L 167.793678 272.856267 
L 168.983057 270.072741 
L 170.172436 266.912818 
L 171.361816 263.280835 
L 172.551195 259.123441 
L 173.740574 254.433259 
L 176.119332 243.628008 
L 179.687469 225.303887 
L 182.066228 213.310367 
L 183.255607 207.859831 
L 184.444986 202.953759 
L 185.634365 198.671632 
L 186.823744 195.028585 
L 188.013123 191.969032 
L 189.202502 189.373015 
L 198.717535 171.146121 
L 199.906915 169.818743 
L 201.096294 169.310234 
L 202.285673 169.744547 
L 203.475052 171.158426 
L 204.664431 173.505928 
L 205.85381 176.674426 
L 207.043189 180.504668 
L 209.421948 189.40217 
L 214.179464 207.811889 
L 220.12636 229.929406 
L 224.883876 248.033826 
L 227.262634 256.322659 
L 229.641393 263.72966 
L 232.020151 270.249985 
L 234.398909 276.032917 
L 236.777667 281.210203 
L 239.156426 285.822848 
L 241.535184 289.877082 
L 243.913942 293.395965 
L 246.2927 296.412332 
L 248.671459 298.934419 
L 251.050217 300.93437 
L 253.428975 302.41093 
L 255.807733 303.481711 
L 261.754629 305.657062 
L 264.133387 306.436512 
L 266.512146 307.01298 
L 268.890904 307.350008 
L 272.459041 307.533835 
L 277.216558 307.485193 
L 280.784695 307.255176 
L 289.110349 306.520957 
L 292.678486 306.583159 
L 297.436003 306.960069 
L 303.382898 307.432389 
L 308.140415 307.563885 
L 310.519173 307.578732 
L 310.519173 307.578732 
" clip-path="url(#p08bd83a929)" style="fill: none; stroke: #ff7f0e; stroke-width: 1.5; stroke-linecap: square"/>
   </g>
   <g id="line2d_18">
    <path d="M 88.276729 307.58094 
L 102.306351 307.469002 
L 122.571362 306.975905 
L 125.689056 306.674081 
L 128.806749 306.203137 
L 133.48329 305.191106 
L 138.159831 303.909463 
L 142.836372 302.399147 
L 145.954066 301.177018 
L 149.07176 299.666727 
L 152.189454 297.790732 
L 155.307148 295.546685 
L 159.983689 291.704345 
L 164.660229 287.791906 
L 167.777923 285.425162 
L 170.895617 283.364434 
L 174.013311 281.590565 
L 184.92524 276.017487 
L 189.601781 273.740054 
L 192.719475 272.461594 
L 195.837169 271.454593 
L 198.954862 270.783111 
L 200.513709 270.603293 
L 202.072556 270.548011 
L 203.631403 270.632933 
L 205.19025 270.87129 
L 206.749097 271.271864 
L 208.307944 271.837558 
L 209.866791 272.564693 
L 211.425638 273.442993 
L 214.543332 275.582392 
L 217.661026 278.070208 
L 225.455261 284.491168 
L 234.808342 291.873141 
L 242.602577 298.52904 
L 245.720271 300.787717 
L 248.837965 302.56301 
L 251.955659 303.844064 
L 255.073353 304.718792 
L 258.191047 305.311164 
L 262.867588 305.904707 
L 270.661822 306.608233 
L 278.456057 307.147876 
L 284.691445 307.347284 
L 292.48568 307.313616 
L 318.986078 307.055265 
L 343.927629 307.580522 
L 361.074946 307.489494 
L 375.104568 307.314608 
L 398.487273 307.58094 
L 398.487273 307.58094 
" clip-path="url(#p08bd83a929)" style="fill: none; stroke: #1f77b4; stroke-width: 1.5; stroke-linecap: square"/>
   </g>
   <g id="line2d_19">
    <path d="M 202.925597 307.584 
L 202.925597 41.472 
" clip-path="url(#p08bd83a929)" style="fill: none; stroke: #1f77b4; stroke-width: 1.5; stroke-linecap: square"/>
   </g>
   <g id="patch_3">
    <path d="M 57.6 307.584 
L 57.6 41.472 
" style="fill: none; stroke: #000000; stroke-width: 0.8; stroke-linejoin: miter; stroke-linecap: square"/>
   </g>
   <g id="patch_4">
    <path d="M 414.72 307.584 
L 414.72 41.472 
" style="fill: none; stroke: #000000; stroke-width: 0.8; stroke-linejoin: miter; stroke-linecap: square"/>
   </g>
   <g id="patch_5">
    <path d="M 57.6 307.584 
L 414.72 307.584 
" style="fill: none; stroke: #000000; stroke-width: 0.8; stroke-linejoin: miter; stroke-linecap: square"/>
   </g>
   <g id="patch_6">
    <path d="M 57.6 41.472 
L 414.72 41.472 
" style="fill: none; stroke: #000000; stroke-width: 0.8; stroke-linejoin: miter; stroke-linecap: square"/>
   </g>
   <g id="legend_1">
    <g id="patch_7">
     <path d="M 297.941875 137.818875 
L 407.72 137.818875 
Q 409.72 137.818875 409.72 135.818875 
L 409.72 48.472 
Q 409.72 46.472 407.72 46.472 
L 297.941875 46.472 
Q 295.941875 46.472 295.941875 48.472 
L 295.941875 135.818875 
Q 295.941875 137.818875 297.941875 137.818875 
z
" style="fill: #ffffff; opacity: 0.8; stroke: #cccccc; stroke-linejoin: miter"/>
    </g>
    <g id="text_16">
     <!-- age_bin -->
     <g transform="translate(333.284063 58.070438) scale(0.1 -0.1)">
      <defs>
       <path id="DejaVuSans-67" d="M 2906 1791 
Q 2906 2416 2648 2759 
Q 2391 3103 1925 3103 
Q 1463 3103 1205 2759 
Q 947 2416 947 1791 
Q 947 1169 1205 825 
Q 1463 481 1925 481 
Q 2391 481 2648 825 
Q 2906 1169 2906 1791 
z
M 3481 434 
Q 3481 -459 3084 -895 
Q 2688 -1331 1869 -1331 
Q 1566 -1331 1297 -1286 
Q 1028 -1241 775 -1147 
L 775 -588 
Q 1028 -725 1275 -790 
Q 1522 -856 1778 -856 
Q 2344 -856 2625 -561 
Q 2906 -266 2906 331 
L 2906 616 
Q 2728 306 2450 153 
Q 2172 0 1784 0 
Q 1141 0 747 490 
Q 353 981 353 1791 
Q 353 2603 747 3093 
Q 1141 3584 1784 3584 
Q 2172 3584 2450 3431 
Q 2728 3278 2906 2969 
L 2906 3500 
L 3481 3500 
L 3481 434 
z
" transform="scale(0.015625)"/>
       <path id="DejaVuSans-5f" d="M 3263 -1063 
L 3263 -1509 
L -63 -1509 
L -63 -1063 
L 3263 -1063 
z
" transform="scale(0.015625)"/>
       <path id="DejaVuSans-62" d="M 3116 1747 
Q 3116 2381 2855 2742 
Q 2594 3103 2138 3103 
Q 1681 3103 1420 2742 
Q 1159 2381 1159 1747 
Q 1159 1113 1420 752 
Q 1681 391 2138 391 
Q 2594 391 2855 752 
Q 3116 1113 3116 1747 
z
M 1159 2969 
Q 1341 3281 1617 3432 
Q 1894 3584 2278 3584 
Q 2916 3584 3314 3078 
Q 3713 2572 3713 1747 
Q 3713 922 3314 415 
Q 2916 -91 2278 -91 
Q 1894 -91 1617 61 
Q 1341 213 1159 525 
L 1159 0 
L 581 0 
L 581 4863 
L 1159 4863 
L 1159 2969 
z
" transform="scale(0.015625)"/>
      </defs>
      <use xlink:href="#DejaVuSans-61"/>
      <use xlink:href="#DejaVuSans-67" x="61.279297"/>
      <use xlink:href="#DejaVuSans-65" x="124.755859"/>
      <use xlink:href="#DejaVuSans-5f" x="186.279297"/>
      <use xlink:href="#DejaVuSans-62" x="236.279297"/>
      <use xlink:href="#DejaVuSans-69" x="299.755859"/>
      <use xlink:href="#DejaVuSans-6e" x="327.539062"/>
     </g>
    </g>
    <g id="line2d_20">
     <path d="M 299.941875 69.526688 
L 309.941875 69.526688 
L 319.941875 69.526688 
" style="fill: none; stroke: #1f77b4; stroke-width: 1.5; stroke-linecap: square"/>
    </g>
    <g id="text_17">
     <!-- (18.005, 33.13] -->
     <g transform="translate(327.941875 73.026688) scale(0.1 -0.1)">
      <defs>
       <path id="DejaVuSans-28" d="M 1984 4856 
Q 1566 4138 1362 3434 
Q 1159 2731 1159 2009 
Q 1159 1288 1364 580 
Q 1569 -128 1984 -844 
L 1484 -844 
Q 1016 -109 783 600 
Q 550 1309 550 2009 
Q 550 2706 781 3412 
Q 1013 4119 1484 4856 
L 1984 4856 
z
" transform="scale(0.015625)"/>
       <path id="DejaVuSans-2c" d="M 750 794 
L 1409 794 
L 1409 256 
L 897 -744 
L 494 -744 
L 750 256 
L 750 794 
z
" transform="scale(0.015625)"/>
       <path id="DejaVuSans-20" transform="scale(0.015625)"/>
       <path id="DejaVuSans-33" d="M 2597 2516 
Q 3050 2419 3304 2112 
Q 3559 1806 3559 1356 
Q 3559 666 3084 287 
Q 2609 -91 1734 -91 
Q 1441 -91 1130 -33 
Q 819 25 488 141 
L 488 750 
Q 750 597 1062 519 
Q 1375 441 1716 441 
Q 2309 441 2620 675 
Q 2931 909 2931 1356 
Q 2931 1769 2642 2001 
Q 2353 2234 1838 2234 
L 1294 2234 
L 1294 2753 
L 1863 2753 
Q 2328 2753 2575 2939 
Q 2822 3125 2822 3475 
Q 2822 3834 2567 4026 
Q 2313 4219 1838 4219 
Q 1578 4219 1281 4162 
Q 984 4106 628 3988 
L 628 4550 
Q 988 4650 1302 4700 
Q 1616 4750 1894 4750 
Q 2613 4750 3031 4423 
Q 3450 4097 3450 3541 
Q 3450 3153 3228 2886 
Q 3006 2619 2597 2516 
z
" transform="scale(0.015625)"/>
       <path id="DejaVuSans-5d" d="M 1947 4863 
L 1947 -844 
L 622 -844 
L 622 -397 
L 1369 -397 
L 1369 4416 
L 622 4416 
L 622 4863 
L 1947 4863 
z
" transform="scale(0.015625)"/>
      </defs>
      <use xlink:href="#DejaVuSans-28"/>
      <use xlink:href="#DejaVuSans-31" x="39.013672"/>
      <use xlink:href="#DejaVuSans-38" x="102.636719"/>
      <use xlink:href="#DejaVuSans-2e" x="166.259766"/>
      <use xlink:href="#DejaVuSans-30" x="198.046875"/>
      <use xlink:href="#DejaVuSans-30" x="261.669922"/>
      <use xlink:href="#DejaVuSans-35" x="325.292969"/>
      <use xlink:href="#DejaVuSans-2c" x="388.916016"/>
      <use xlink:href="#DejaVuSans-20" x="420.703125"/>
      <use xlink:href="#DejaVuSans-33" x="452.490234"/>
      <use xlink:href="#DejaVuSans-33" x="516.113281"/>
      <use xlink:href="#DejaVuSans-2e" x="579.736328"/>
      <use xlink:href="#DejaVuSans-31" x="611.523438"/>
      <use xlink:href="#DejaVuSans-33" x="675.146484"/>
      <use xlink:href="#DejaVuSans-5d" x="738.769531"/>
     </g>
    </g>
    <g id="line2d_21">
     <path d="M 299.941875 84.204813 
L 309.941875 84.204813 
L 319.941875 84.204813 
" style="fill: none; stroke: #ff7f0e; stroke-width: 1.5; stroke-linecap: square"/>
    </g>
    <g id="text_18">
     <!-- (33.13, 48.18] -->
     <g transform="translate(327.941875 87.704813) scale(0.1 -0.1)">
      <use xlink:href="#DejaVuSans-28"/>
      <use xlink:href="#DejaVuSans-33" x="39.013672"/>
      <use xlink:href="#DejaVuSans-33" x="102.636719"/>
      <use xlink:href="#DejaVuSans-2e" x="166.259766"/>
      <use xlink:href="#DejaVuSans-31" x="198.046875"/>
      <use xlink:href="#DejaVuSans-33" x="261.669922"/>
      <use xlink:href="#DejaVuSans-2c" x="325.292969"/>
      <use xlink:href="#DejaVuSans-20" x="357.080078"/>
      <use xlink:href="#DejaVuSans-34" x="388.867188"/>
      <use xlink:href="#DejaVuSans-38" x="452.490234"/>
      <use xlink:href="#DejaVuSans-2e" x="516.113281"/>
      <use xlink:href="#DejaVuSans-31" x="547.900391"/>
      <use xlink:href="#DejaVuSans-38" x="611.523438"/>
      <use xlink:href="#DejaVuSans-5d" x="675.146484"/>
     </g>
    </g>
    <g id="line2d_22">
     <path d="M 299.941875 98.882938 
L 309.941875 98.882938 
L 319.941875 98.882938 
" style="fill: none; stroke: #2ca02c; stroke-width: 1.5; stroke-linecap: square"/>
    </g>
    <g id="text_19">
     <!-- (48.18, 63.23] -->
     <g transform="translate(327.941875 102.382938) scale(0.1 -0.1)">
      <use xlink:href="#DejaVuSans-28"/>
      <use xlink:href="#DejaVuSans-34" x="39.013672"/>
      <use xlink:href="#DejaVuSans-38" x="102.636719"/>
      <use xlink:href="#DejaVuSans-2e" x="166.259766"/>
      <use xlink:href="#DejaVuSans-31" x="198.046875"/>
      <use xlink:href="#DejaVuSans-38" x="261.669922"/>
      <use xlink:href="#DejaVuSans-2c" x="325.292969"/>
      <use xlink:href="#DejaVuSans-20" x="357.080078"/>
      <use xlink:href="#DejaVuSans-36" x="388.867188"/>
      <use xlink:href="#DejaVuSans-33" x="452.490234"/>
      <use xlink:href="#DejaVuSans-2e" x="516.113281"/>
      <use xlink:href="#DejaVuSans-32" x="547.900391"/>
      <use xlink:href="#DejaVuSans-33" x="611.523438"/>
      <use xlink:href="#DejaVuSans-5d" x="675.146484"/>
     </g>
    </g>
    <g id="line2d_23">
     <path d="M 299.941875 113.561063 
L 309.941875 113.561063 
L 319.941875 113.561063 
" style="fill: none; stroke: #d62728; stroke-width: 1.5; stroke-linecap: square"/>
    </g>
    <g id="text_20">
     <!-- (63.23, 78.28] -->
     <g transform="translate(327.941875 117.061063) scale(0.1 -0.1)">
      <defs>
       <path id="DejaVuSans-37" d="M 525 4666 
L 3525 4666 
L 3525 4397 
L 1831 0 
L 1172 0 
L 2766 4134 
L 525 4134 
L 525 4666 
z
" transform="scale(0.015625)"/>
      </defs>
      <use xlink:href="#DejaVuSans-28"/>
      <use xlink:href="#DejaVuSans-36" x="39.013672"/>
      <use xlink:href="#DejaVuSans-33" x="102.636719"/>
      <use xlink:href="#DejaVuSans-2e" x="166.259766"/>
      <use xlink:href="#DejaVuSans-32" x="198.046875"/>
      <use xlink:href="#DejaVuSans-33" x="261.669922"/>
      <use xlink:href="#DejaVuSans-2c" x="325.292969"/>
      <use xlink:href="#DejaVuSans-20" x="357.080078"/>
      <use xlink:href="#DejaVuSans-37" x="388.867188"/>
      <use xlink:href="#DejaVuSans-38" x="452.490234"/>
      <use xlink:href="#DejaVuSans-2e" x="516.113281"/>
      <use xlink:href="#DejaVuSans-32" x="547.900391"/>
      <use xlink:href="#DejaVuSans-38" x="611.523438"/>
      <use xlink:href="#DejaVuSans-5d" x="675.146484"/>
     </g>
    </g>
    <g id="line2d_24">
     <path d="M 299.941875 128.239188 
L 309.941875 128.239188 
L 319.941875 128.239188 
" style="fill: none; stroke: #9467bd; stroke-width: 1.5; stroke-linecap: square"/>
    </g>
    <g id="text_21">
     <!-- (78.28, 93.33] -->
     <g transform="translate(327.941875 131.739188) scale(0.1 -0.1)">
      <defs>
       <path id="DejaVuSans-39" d="M 703 97 
L 703 672 
Q 941 559 1184 500 
Q 1428 441 1663 441 
Q 2288 441 2617 861 
Q 2947 1281 2994 2138 
Q 2813 1869 2534 1725 
Q 2256 1581 1919 1581 
Q 1219 1581 811 2004 
Q 403 2428 403 3163 
Q 403 3881 828 4315 
Q 1253 4750 1959 4750 
Q 2769 4750 3195 4129 
Q 3622 3509 3622 2328 
Q 3622 1225 3098 567 
Q 2575 -91 1691 -91 
Q 1453 -91 1209 -44 
Q 966 3 703 97 
z
M 1959 2075 
Q 2384 2075 2632 2365 
Q 2881 2656 2881 3163 
Q 2881 3666 2632 3958 
Q 2384 4250 1959 4250 
Q 1534 4250 1286 3958 
Q 1038 3666 1038 3163 
Q 1038 2656 1286 2365 
Q 1534 2075 1959 2075 
z
" transform="scale(0.015625)"/>
      </defs>
      <use xlink:href="#DejaVuSans-28"/>
      <use xlink:href="#DejaVuSans-37" x="39.013672"/>
      <use xlink:href="#DejaVuSans-38" x="102.636719"/>
      <use xlink:href="#DejaVuSans-2e" x="166.259766"/>
      <use xlink:href="#DejaVuSans-32" x="198.046875"/>
      <use xlink:href="#DejaVuSans-38" x="261.669922"/>
      <use xlink:href="#DejaVuSans-2c" x="325.292969"/>
      <use xlink:href="#DejaVuSans-20" x="357.080078"/>
      <use xlink:href="#DejaVuSans-39" x="388.867188"/>
      <use xlink:href="#DejaVuSans-33" x="452.490234"/>
      <use xlink:href="#DejaVuSans-2e" x="516.113281"/>
      <use xlink:href="#DejaVuSans-33" x="547.900391"/>
      <use xlink:href="#DejaVuSans-33" x="611.523438"/>
      <use xlink:href="#DejaVuSans-5d" x="675.146484"/>
     </g>
    </g>
   </g>
  </g>
 </g>
 <defs>
  <clipPath id="p08bd83a929">
   <rect x="57.6" y="41.472" width="357.12" height="266.112"/>
  </clipPath>
 </defs>
</svg>
