<?xml version="1.0" encoding="utf-8" standalone="no"?>
<!DOCTYPE svg PUBLIC "-//W3C//DTD SVG 1.1//EN"
  "http://www.w3.org/Graphics/SVG/1.1/DTD/svg11.dtd">
<svg xmlns:xlink="http://www.w3.org/1999/xlink" width="460.8pt" height="345.6pt" viewBox="0 0 460.8 345.6" xmlns="http://www.w3.org/2000/svg" version="1.1">
 <metadata>
  <rdf:RDF xmlns:dc="http://purl.org/dc/elements/1.1/" xmlns:cc="http://creativecommons.org/ns#" xmlns:rdf="http://www.w3.org/1999/02/22-rdf-syntax-ns#">
   <cc:Work>
    <dc:type rdf:resource="http://purl.org/dc/dcmitype/StillImage"/>
    <dc:date>2023-02-10T11:04:27.210287</dc:date>
    <dc:format>image/svg+xml</dc:format>
    <dc:creator>
     <cc:Agent>
      <dc:title>Matplotlib v3.6.3, https://matplotlib.org/</dc:title>
     </cc:Agent>
    </dc:creator>
   </cc:Work>
  </rdf:RDF>
 </metadata>
 <defs>
  <style type="text/css">*{stroke-linejoin: round; stroke-linecap: butt}</style>
 </defs>
 <g id="figure_1">
  <g id="patch_1">
   <path d="M 0 345.6 
L 460.8 345.6 
L 460.8 0 
L 0 0 
z
" style="fill: #ffffff"/>
  </g>
  <g id="axes_1">
   <g id="patch_2">
    <path d="M 57.6 307.584 
L 414.72 307.584 
L 414.72 41.472 
L 57.6 41.472 
z
" style="fill: #ffffff"/>
   </g>
   <g id="matplotlib.axis_1">
    <g id="xtick_1">
     <g id="line2d_1">
      <defs>
       <path id="mab238fe7e4" d="M 0 0 
L 0 3.5 
" style="stroke: #000000; stroke-width: 0.8"/>
      </defs>
      <g>
       <use xlink:href="#mab238fe7e4" x="68.170595" y="307.584" style="stroke: #000000; stroke-width: 0.8"/>
      </g>
     </g>
     <g id="text_1">
      <!-- −0.06 -->
      <g transform="translate(52.847939 322.182437) scale(0.1 -0.1)">
       <defs>
        <path id="DejaVuSans-2212" d="M 678 2272 
L 4684 2272 
L 4684 1741 
L 678 1741 
L 678 2272 
z
" transform="scale(0.015625)"/>
        <path id="DejaVuSans-30" d="M 2034 4250 
Q 1547 4250 1301 3770 
Q 1056 3291 1056 2328 
Q 1056 1369 1301 889 
Q 1547 409 2034 409 
Q 2525 409 2770 889 
Q 3016 1369 3016 2328 
Q 3016 3291 2770 3770 
Q 2525 4250 2034 4250 
z
M 2034 4750 
Q 2819 4750 3233 4129 
Q 3647 3509 3647 2328 
Q 3647 1150 3233 529 
Q 2819 -91 2034 -91 
Q 1250 -91 836 529 
Q 422 1150 422 2328 
Q 422 3509 836 4129 
Q 1250 4750 2034 4750 
z
" transform="scale(0.015625)"/>
        <path id="DejaVuSans-2e" d="M 684 794 
L 1344 794 
L 1344 0 
L 684 0 
L 684 794 
z
" transform="scale(0.015625)"/>
        <path id="DejaVuSans-36" d="M 2113 2584 
Q 1688 2584 1439 2293 
Q 1191 2003 1191 1497 
Q 1191 994 1439 701 
Q 1688 409 2113 409 
Q 2538 409 2786 701 
Q 3034 994 3034 1497 
Q 3034 2003 2786 2293 
Q 2538 2584 2113 2584 
z
M 3366 4563 
L 3366 3988 
Q 3128 4100 2886 4159 
Q 2644 4219 2406 4219 
Q 1781 4219 1451 3797 
Q 1122 3375 1075 2522 
Q 1259 2794 1537 2939 
Q 1816 3084 2150 3084 
Q 2853 3084 3261 2657 
Q 3669 2231 3669 1497 
Q 3669 778 3244 343 
Q 2819 -91 2113 -91 
Q 1303 -91 875 529 
Q 447 1150 447 2328 
Q 447 3434 972 4092 
Q 1497 4750 2381 4750 
Q 2619 4750 2861 4703 
Q 3103 4656 3366 4563 
z
" transform="scale(0.015625)"/>
       </defs>
       <use xlink:href="#DejaVuSans-2212"/>
       <use xlink:href="#DejaVuSans-30" x="83.789062"/>
       <use xlink:href="#DejaVuSans-2e" x="147.412109"/>
       <use xlink:href="#DejaVuSans-30" x="179.199219"/>
       <use xlink:href="#DejaVuSans-36" x="242.822266"/>
      </g>
     </g>
    </g>
    <g id="xtick_2">
     <g id="line2d_2">
      <g>
       <use xlink:href="#mab238fe7e4" x="116.181627" y="307.584" style="stroke: #000000; stroke-width: 0.8"/>
      </g>
     </g>
     <g id="text_2">
      <!-- −0.04 -->
      <g transform="translate(100.85897 322.182437) scale(0.1 -0.1)">
       <defs>
        <path id="DejaVuSans-34" d="M 2419 4116 
L 825 1625 
L 2419 1625 
L 2419 4116 
z
M 2253 4666 
L 3047 4666 
L 3047 1625 
L 3713 1625 
L 3713 1100 
L 3047 1100 
L 3047 0 
L 2419 0 
L 2419 1100 
L 313 1100 
L 313 1709 
L 2253 4666 
z
" transform="scale(0.015625)"/>
       </defs>
       <use xlink:href="#DejaVuSans-2212"/>
       <use xlink:href="#DejaVuSans-30" x="83.789062"/>
       <use xlink:href="#DejaVuSans-2e" x="147.412109"/>
       <use xlink:href="#DejaVuSans-30" x="179.199219"/>
       <use xlink:href="#DejaVuSans-34" x="242.822266"/>
      </g>
     </g>
    </g>
    <g id="xtick_3">
     <g id="line2d_3">
      <g>
       <use xlink:href="#mab238fe7e4" x="164.192658" y="307.584" style="stroke: #000000; stroke-width: 0.8"/>
      </g>
     </g>
     <g id="text_3">
      <!-- −0.02 -->
      <g transform="translate(148.870002 322.182437) scale(0.1 -0.1)">
       <defs>
        <path id="DejaVuSans-32" d="M 1228 531 
L 3431 531 
L 3431 0 
L 469 0 
L 469 531 
Q 828 903 1448 1529 
Q 2069 2156 2228 2338 
Q 2531 2678 2651 2914 
Q 2772 3150 2772 3378 
Q 2772 3750 2511 3984 
Q 2250 4219 1831 4219 
Q 1534 4219 1204 4116 
Q 875 4013 500 3803 
L 500 4441 
Q 881 4594 1212 4672 
Q 1544 4750 1819 4750 
Q 2544 4750 2975 4387 
Q 3406 4025 3406 3419 
Q 3406 3131 3298 2873 
Q 3191 2616 2906 2266 
Q 2828 2175 2409 1742 
Q 1991 1309 1228 531 
z
" transform="scale(0.015625)"/>
       </defs>
       <use xlink:href="#DejaVuSans-2212"/>
       <use xlink:href="#DejaVuSans-30" x="83.789062"/>
       <use xlink:href="#DejaVuSans-2e" x="147.412109"/>
       <use xlink:href="#DejaVuSans-30" x="179.199219"/>
       <use xlink:href="#DejaVuSans-32" x="242.822266"/>
      </g>
     </g>
    </g>
    <g id="xtick_4">
     <g id="line2d_4">
      <g>
       <use xlink:href="#mab238fe7e4" x="212.20369" y="307.584" style="stroke: #000000; stroke-width: 0.8"/>
      </g>
     </g>
     <g id="text_4">
      <!-- 0.00 -->
      <g transform="translate(201.070878 322.182437) scale(0.1 -0.1)">
       <use xlink:href="#DejaVuSans-30"/>
       <use xlink:href="#DejaVuSans-2e" x="63.623047"/>
       <use xlink:href="#DejaVuSans-30" x="95.410156"/>
       <use xlink:href="#DejaVuSans-30" x="159.033203"/>
      </g>
     </g>
    </g>
    <g id="xtick_5">
     <g id="line2d_5">
      <g>
       <use xlink:href="#mab238fe7e4" x="260.214722" y="307.584" style="stroke: #000000; stroke-width: 0.8"/>
      </g>
     </g>
     <g id="text_5">
      <!-- 0.02 -->
      <g transform="translate(249.081909 322.182437) scale(0.1 -0.1)">
       <use xlink:href="#DejaVuSans-30"/>
       <use xlink:href="#DejaVuSans-2e" x="63.623047"/>
       <use xlink:href="#DejaVuSans-30" x="95.410156"/>
       <use xlink:href="#DejaVuSans-32" x="159.033203"/>
      </g>
     </g>
    </g>
    <g id="xtick_6">
     <g id="line2d_6">
      <g>
       <use xlink:href="#mab238fe7e4" x="308.225754" y="307.584" style="stroke: #000000; stroke-width: 0.8"/>
      </g>
     </g>
     <g id="text_6">
      <!-- 0.04 -->
      <g transform="translate(297.092941 322.182437) scale(0.1 -0.1)">
       <use xlink:href="#DejaVuSans-30"/>
       <use xlink:href="#DejaVuSans-2e" x="63.623047"/>
       <use xlink:href="#DejaVuSans-30" x="95.410156"/>
       <use xlink:href="#DejaVuSans-34" x="159.033203"/>
      </g>
     </g>
    </g>
    <g id="xtick_7">
     <g id="line2d_7">
      <g>
       <use xlink:href="#mab238fe7e4" x="356.236785" y="307.584" style="stroke: #000000; stroke-width: 0.8"/>
      </g>
     </g>
     <g id="text_7">
      <!-- 0.06 -->
      <g transform="translate(345.103973 322.182437) scale(0.1 -0.1)">
       <use xlink:href="#DejaVuSans-30"/>
       <use xlink:href="#DejaVuSans-2e" x="63.623047"/>
       <use xlink:href="#DejaVuSans-30" x="95.410156"/>
       <use xlink:href="#DejaVuSans-36" x="159.033203"/>
      </g>
     </g>
    </g>
    <g id="xtick_8">
     <g id="line2d_8">
      <g>
       <use xlink:href="#mab238fe7e4" x="404.247817" y="307.584" style="stroke: #000000; stroke-width: 0.8"/>
      </g>
     </g>
     <g id="text_8">
      <!-- 0.08 -->
      <g transform="translate(393.115005 322.182437) scale(0.1 -0.1)">
       <defs>
        <path id="DejaVuSans-38" d="M 2034 2216 
Q 1584 2216 1326 1975 
Q 1069 1734 1069 1313 
Q 1069 891 1326 650 
Q 1584 409 2034 409 
Q 2484 409 2743 651 
Q 3003 894 3003 1313 
Q 3003 1734 2745 1975 
Q 2488 2216 2034 2216 
z
M 1403 2484 
Q 997 2584 770 2862 
Q 544 3141 544 3541 
Q 544 4100 942 4425 
Q 1341 4750 2034 4750 
Q 2731 4750 3128 4425 
Q 3525 4100 3525 3541 
Q 3525 3141 3298 2862 
Q 3072 2584 2669 2484 
Q 3125 2378 3379 2068 
Q 3634 1759 3634 1313 
Q 3634 634 3220 271 
Q 2806 -91 2034 -91 
Q 1263 -91 848 271 
Q 434 634 434 1313 
Q 434 1759 690 2068 
Q 947 2378 1403 2484 
z
M 1172 3481 
Q 1172 3119 1398 2916 
Q 1625 2713 2034 2713 
Q 2441 2713 2670 2916 
Q 2900 3119 2900 3481 
Q 2900 3844 2670 4047 
Q 2441 4250 2034 4250 
Q 1625 4250 1398 4047 
Q 1172 3844 1172 3481 
z
" transform="scale(0.015625)"/>
       </defs>
       <use xlink:href="#DejaVuSans-30"/>
       <use xlink:href="#DejaVuSans-2e" x="63.623047"/>
       <use xlink:href="#DejaVuSans-30" x="95.410156"/>
       <use xlink:href="#DejaVuSans-38" x="159.033203"/>
      </g>
     </g>
    </g>
    <g id="text_9">
     <!-- bias -->
     <g transform="translate(225.927969 335.860562) scale(0.1 -0.1)">
      <defs>
       <path id="DejaVuSans-62" d="M 3116 1747 
Q 3116 2381 2855 2742 
Q 2594 3103 2138 3103 
Q 1681 3103 1420 2742 
Q 1159 2381 1159 1747 
Q 1159 1113 1420 752 
Q 1681 391 2138 391 
Q 2594 391 2855 752 
Q 3116 1113 3116 1747 
z
M 1159 2969 
Q 1341 3281 1617 3432 
Q 1894 3584 2278 3584 
Q 2916 3584 3314 3078 
Q 3713 2572 3713 1747 
Q 3713 922 3314 415 
Q 2916 -91 2278 -91 
Q 1894 -91 1617 61 
Q 1341 213 1159 525 
L 1159 0 
L 581 0 
L 581 4863 
L 1159 4863 
L 1159 2969 
z
" transform="scale(0.015625)"/>
       <path id="DejaVuSans-69" d="M 603 3500 
L 1178 3500 
L 1178 0 
L 603 0 
L 603 3500 
z
M 603 4863 
L 1178 4863 
L 1178 4134 
L 603 4134 
L 603 4863 
z
" transform="scale(0.015625)"/>
       <path id="DejaVuSans-61" d="M 2194 1759 
Q 1497 1759 1228 1600 
Q 959 1441 959 1056 
Q 959 750 1161 570 
Q 1363 391 1709 391 
Q 2188 391 2477 730 
Q 2766 1069 2766 1631 
L 2766 1759 
L 2194 1759 
z
M 3341 1997 
L 3341 0 
L 2766 0 
L 2766 531 
Q 2569 213 2275 61 
Q 1981 -91 1556 -91 
Q 1019 -91 701 211 
Q 384 513 384 1019 
Q 384 1609 779 1909 
Q 1175 2209 1959 2209 
L 2766 2209 
L 2766 2266 
Q 2766 2663 2505 2880 
Q 2244 3097 1772 3097 
Q 1472 3097 1187 3025 
Q 903 2953 641 2809 
L 641 3341 
Q 956 3463 1253 3523 
Q 1550 3584 1831 3584 
Q 2591 3584 2966 3190 
Q 3341 2797 3341 1997 
z
" transform="scale(0.015625)"/>
       <path id="DejaVuSans-73" d="M 2834 3397 
L 2834 2853 
Q 2591 2978 2328 3040 
Q 2066 3103 1784 3103 
Q 1356 3103 1142 2972 
Q 928 2841 928 2578 
Q 928 2378 1081 2264 
Q 1234 2150 1697 2047 
L 1894 2003 
Q 2506 1872 2764 1633 
Q 3022 1394 3022 966 
Q 3022 478 2636 193 
Q 2250 -91 1575 -91 
Q 1294 -91 989 -36 
Q 684 19 347 128 
L 347 722 
Q 666 556 975 473 
Q 1284 391 1588 391 
Q 1994 391 2212 530 
Q 2431 669 2431 922 
Q 2431 1156 2273 1281 
Q 2116 1406 1581 1522 
L 1381 1569 
Q 847 1681 609 1914 
Q 372 2147 372 2553 
Q 372 3047 722 3315 
Q 1072 3584 1716 3584 
Q 2034 3584 2315 3537 
Q 2597 3491 2834 3397 
z
" transform="scale(0.015625)"/>
      </defs>
      <use xlink:href="#DejaVuSans-62"/>
      <use xlink:href="#DejaVuSans-69" x="63.476562"/>
      <use xlink:href="#DejaVuSans-61" x="91.259766"/>
      <use xlink:href="#DejaVuSans-73" x="152.539062"/>
     </g>
    </g>
   </g>
   <g id="matplotlib.axis_2">
    <g id="ytick_1">
     <g id="line2d_9">
      <defs>
       <path id="me93a98ed98" d="M 0 0 
L -3.5 0 
" style="stroke: #000000; stroke-width: 0.8"/>
      </defs>
      <g>
       <use xlink:href="#me93a98ed98" x="57.6" y="307.584" style="stroke: #000000; stroke-width: 0.8"/>
      </g>
     </g>
     <g id="text_10">
      <!-- 0 -->
      <g transform="translate(44.2375 311.383219) scale(0.1 -0.1)">
       <use xlink:href="#DejaVuSans-30"/>
      </g>
     </g>
    </g>
    <g id="ytick_2">
     <g id="line2d_10">
      <g>
       <use xlink:href="#me93a98ed98" x="57.6" y="272.603468" style="stroke: #000000; stroke-width: 0.8"/>
      </g>
     </g>
     <g id="text_11">
      <!-- 2 -->
      <g transform="translate(44.2375 276.402687) scale(0.1 -0.1)">
       <use xlink:href="#DejaVuSans-32"/>
      </g>
     </g>
    </g>
    <g id="ytick_3">
     <g id="line2d_11">
      <g>
       <use xlink:href="#me93a98ed98" x="57.6" y="237.622936" style="stroke: #000000; stroke-width: 0.8"/>
      </g>
     </g>
     <g id="text_12">
      <!-- 4 -->
      <g transform="translate(44.2375 241.422155) scale(0.1 -0.1)">
       <use xlink:href="#DejaVuSans-34"/>
      </g>
     </g>
    </g>
    <g id="ytick_4">
     <g id="line2d_12">
      <g>
       <use xlink:href="#me93a98ed98" x="57.6" y="202.642404" style="stroke: #000000; stroke-width: 0.8"/>
      </g>
     </g>
     <g id="text_13">
      <!-- 6 -->
      <g transform="translate(44.2375 206.441623) scale(0.1 -0.1)">
       <use xlink:href="#DejaVuSans-36"/>
      </g>
     </g>
    </g>
    <g id="ytick_5">
     <g id="line2d_13">
      <g>
       <use xlink:href="#me93a98ed98" x="57.6" y="167.661872" style="stroke: #000000; stroke-width: 0.8"/>
      </g>
     </g>
     <g id="text_14">
      <!-- 8 -->
      <g transform="translate(44.2375 171.461091) scale(0.1 -0.1)">
       <use xlink:href="#DejaVuSans-38"/>
      </g>
     </g>
    </g>
    <g id="ytick_6">
     <g id="line2d_14">
      <g>
       <use xlink:href="#me93a98ed98" x="57.6" y="132.68134" style="stroke: #000000; stroke-width: 0.8"/>
      </g>
     </g>
     <g id="text_15">
      <!-- 10 -->
      <g transform="translate(37.875 136.480559) scale(0.1 -0.1)">
       <defs>
        <path id="DejaVuSans-31" d="M 794 531 
L 1825 531 
L 1825 4091 
L 703 3866 
L 703 4441 
L 1819 4666 
L 2450 4666 
L 2450 531 
L 3481 531 
L 3481 0 
L 794 0 
L 794 531 
z
" transform="scale(0.015625)"/>
       </defs>
       <use xlink:href="#DejaVuSans-31"/>
       <use xlink:href="#DejaVuSans-30" x="63.623047"/>
      </g>
     </g>
    </g>
    <g id="ytick_7">
     <g id="line2d_15">
      <g>
       <use xlink:href="#me93a98ed98" x="57.6" y="97.700809" style="stroke: #000000; stroke-width: 0.8"/>
      </g>
     </g>
     <g id="text_16">
      <!-- 12 -->
      <g transform="translate(37.875 101.500027) scale(0.1 -0.1)">
       <use xlink:href="#DejaVuSans-31"/>
       <use xlink:href="#DejaVuSans-32" x="63.623047"/>
      </g>
     </g>
    </g>
    <g id="ytick_8">
     <g id="line2d_16">
      <g>
       <use xlink:href="#me93a98ed98" x="57.6" y="62.720277" style="stroke: #000000; stroke-width: 0.8"/>
      </g>
     </g>
     <g id="text_17">
      <!-- 14 -->
      <g transform="translate(37.875 66.519495) scale(0.1 -0.1)">
       <use xlink:href="#DejaVuSans-31"/>
       <use xlink:href="#DejaVuSans-34" x="63.623047"/>
      </g>
     </g>
    </g>
    <g id="text_18">
     <!-- Density -->
     <g transform="translate(31.795312 193.536594) rotate(-90) scale(0.1 -0.1)">
      <defs>
       <path id="DejaVuSans-44" d="M 1259 4147 
L 1259 519 
L 2022 519 
Q 2988 519 3436 956 
Q 3884 1394 3884 2338 
Q 3884 3275 3436 3711 
Q 2988 4147 2022 4147 
L 1259 4147 
z
M 628 4666 
L 1925 4666 
Q 3281 4666 3915 4102 
Q 4550 3538 4550 2338 
Q 4550 1131 3912 565 
Q 3275 0 1925 0 
L 628 0 
L 628 4666 
z
" transform="scale(0.015625)"/>
       <path id="DejaVuSans-65" d="M 3597 1894 
L 3597 1613 
L 953 1613 
Q 991 1019 1311 708 
Q 1631 397 2203 397 
Q 2534 397 2845 478 
Q 3156 559 3463 722 
L 3463 178 
Q 3153 47 2828 -22 
Q 2503 -91 2169 -91 
Q 1331 -91 842 396 
Q 353 884 353 1716 
Q 353 2575 817 3079 
Q 1281 3584 2069 3584 
Q 2775 3584 3186 3129 
Q 3597 2675 3597 1894 
z
M 3022 2063 
Q 3016 2534 2758 2815 
Q 2500 3097 2075 3097 
Q 1594 3097 1305 2825 
Q 1016 2553 972 2059 
L 3022 2063 
z
" transform="scale(0.015625)"/>
       <path id="DejaVuSans-6e" d="M 3513 2113 
L 3513 0 
L 2938 0 
L 2938 2094 
Q 2938 2591 2744 2837 
Q 2550 3084 2163 3084 
Q 1697 3084 1428 2787 
Q 1159 2491 1159 1978 
L 1159 0 
L 581 0 
L 581 3500 
L 1159 3500 
L 1159 2956 
Q 1366 3272 1645 3428 
Q 1925 3584 2291 3584 
Q 2894 3584 3203 3211 
Q 3513 2838 3513 2113 
z
" transform="scale(0.015625)"/>
       <path id="DejaVuSans-74" d="M 1172 4494 
L 1172 3500 
L 2356 3500 
L 2356 3053 
L 1172 3053 
L 1172 1153 
Q 1172 725 1289 603 
Q 1406 481 1766 481 
L 2356 481 
L 2356 0 
L 1766 0 
Q 1100 0 847 248 
Q 594 497 594 1153 
L 594 3053 
L 172 3053 
L 172 3500 
L 594 3500 
L 594 4494 
L 1172 4494 
z
" transform="scale(0.015625)"/>
       <path id="DejaVuSans-79" d="M 2059 -325 
Q 1816 -950 1584 -1140 
Q 1353 -1331 966 -1331 
L 506 -1331 
L 506 -850 
L 844 -850 
Q 1081 -850 1212 -737 
Q 1344 -625 1503 -206 
L 1606 56 
L 191 3500 
L 800 3500 
L 1894 763 
L 2988 3500 
L 3597 3500 
L 2059 -325 
z
" transform="scale(0.015625)"/>
      </defs>
      <use xlink:href="#DejaVuSans-44"/>
      <use xlink:href="#DejaVuSans-65" x="77.001953"/>
      <use xlink:href="#DejaVuSans-6e" x="138.525391"/>
      <use xlink:href="#DejaVuSans-73" x="201.904297"/>
      <use xlink:href="#DejaVuSans-69" x="254.003906"/>
      <use xlink:href="#DejaVuSans-74" x="281.787109"/>
      <use xlink:href="#DejaVuSans-79" x="320.996094"/>
     </g>
    </g>
   </g>
   <g id="line2d_17">
    <path d="M 108.058623 307.580653 
L 129.067776 307.455157 
L 141.673268 307.138859 
L 152.177845 306.661376 
L 159.531048 306.103542 
L 165.833794 305.391892 
L 173.186998 304.30175 
L 186.842948 302.19016 
L 192.095236 301.627007 
L 197.347524 301.311925 
L 202.599812 301.2713 
L 207.852101 301.489045 
L 214.154847 302.017344 
L 222.558508 302.98122 
L 236.214457 304.569184 
L 243.567661 305.169479 
L 250.920864 305.527026 
L 278.232764 306.549756 
L 292.939171 307.278777 
L 302.39329 307.500291 
L 317.099697 307.57938 
L 317.099697 307.57938 
" clip-path="url(#p2122289fc9)" style="fill: none; stroke: #9467bd; stroke-width: 1.5; stroke-linecap: square"/>
   </g>
   <g id="line2d_18">
    <path d="M 97.73026 307.572742 
L 105.131729 307.456175 
L 110.066042 307.154605 
L 113.766777 306.715951 
L 118.70109 305.867844 
L 124.868981 304.791994 
L 128.569715 304.361173 
L 135.971185 303.627004 
L 138.438341 303.138537 
L 140.905498 302.401184 
L 143.372654 301.374843 
L 145.839811 300.047608 
L 148.306967 298.425566 
L 150.774123 296.518843 
L 153.24128 294.328938 
L 155.708436 291.840448 
L 158.175593 289.020135 
L 160.642749 285.827348 
L 163.109906 282.237443 
L 165.577062 278.271548 
L 169.277797 271.824961 
L 174.21211 263.117975 
L 177.912844 257.073433 
L 181.613579 251.508427 
L 187.78147 242.396697 
L 191.482205 236.462382 
L 196.416518 228.27534 
L 198.883674 224.654007 
L 200.117253 223.127394 
L 201.350831 221.852081 
L 202.584409 220.865417 
L 203.817987 220.193526 
L 205.051565 219.849097 
L 206.285144 219.830369 
L 207.518722 220.121325 
L 208.7523 220.692995 
L 209.985878 221.505597 
L 212.453035 223.656659 
L 217.387348 228.549447 
L 219.854504 230.530038 
L 221.088082 231.295983 
L 222.321661 231.900949 
L 223.555239 232.3528 
L 226.022395 232.893034 
L 229.72313 233.418476 
L 230.956708 233.720396 
L 232.190286 234.167706 
L 233.423865 234.799407 
L 234.657443 235.64379 
L 235.891021 236.717071 
L 237.124599 238.023266 
L 238.358178 239.555233 
L 240.825334 243.224489 
L 243.29249 247.530422 
L 246.993225 254.704739 
L 254.394694 269.430955 
L 256.861851 273.886248 
L 259.329007 277.875462 
L 261.796164 281.306733 
L 264.26332 284.160174 
L 266.730477 286.494189 
L 269.197633 288.428871 
L 272.898368 290.90844 
L 280.299837 295.740219 
L 286.467728 299.903212 
L 288.934885 301.390379 
L 291.402041 302.68405 
L 293.869198 303.758488 
L 296.336354 304.617625 
L 298.803511 305.286269 
L 302.504245 306.004276 
L 306.20498 306.466411 
L 311.139293 306.803272 
L 321.007919 307.096497 
L 337.044436 307.548225 
L 343.212327 307.578951 
L 343.212327 307.578951 
" clip-path="url(#p2122289fc9)" style="fill: none; stroke: #d62728; stroke-width: 1.5; stroke-linecap: square"/>
   </g>
   <g id="line2d_19">
    <path d="M 73.832727 307.577461 
L 81.989877 307.450897 
L 95.041316 307.024148 
L 111.355614 307.547775 
L 116.249904 307.391043 
L 119.512764 307.038528 
L 122.775624 306.3169 
L 124.407053 305.77886 
L 126.038483 305.113636 
L 129.301343 303.413499 
L 132.564203 301.27832 
L 135.827063 298.805818 
L 140.721352 294.731604 
L 143.984212 291.717467 
L 145.615642 289.948988 
L 147.247072 287.865359 
L 148.878502 285.360384 
L 150.509931 282.360509 
L 152.141361 278.845613 
L 153.772791 274.85299 
L 157.035651 265.753541 
L 160.298511 255.541808 
L 161.929941 249.93925 
L 163.56137 243.83053 
L 165.1928 237.048706 
L 166.82423 229.457407 
L 168.45566 220.998713 
L 170.08709 211.72278 
L 173.34995 191.446703 
L 178.244239 160.61172 
L 181.507099 141.647798 
L 191.295678 87.227979 
L 192.927108 79.928499 
L 194.558538 74.177159 
L 196.189968 70.157428 
L 197.821398 67.753533 
L 199.452828 66.567411 
L 202.715688 65.53293 
L 204.347117 64.637056 
L 205.978547 63.123911 
L 207.609977 61.049243 
L 210.872837 56.467418 
L 212.504267 54.82002 
L 214.135697 54.143976 
L 215.767127 54.720918 
L 217.398556 56.688387 
L 219.029986 60.030351 
L 220.661416 64.586765 
L 222.292846 70.080153 
L 228.818566 94.458205 
L 235.344285 116.340902 
L 236.975715 123.179567 
L 238.607145 131.28843 
L 240.238575 140.728616 
L 243.501434 162.512628 
L 246.764294 184.693624 
L 248.395724 194.659484 
L 250.027154 203.508431 
L 251.658584 211.225172 
L 253.290014 217.959213 
L 254.921444 223.954847 
L 258.184303 234.772527 
L 266.341453 260.525828 
L 267.972883 265.072597 
L 269.604312 269.142225 
L 271.235742 272.686397 
L 272.867172 275.726129 
L 274.498602 278.342391 
L 277.761462 282.787434 
L 287.550041 295.060583 
L 289.181471 296.692246 
L 290.812901 298.009093 
L 292.444331 298.993739 
L 294.075761 299.684304 
L 297.33862 300.555879 
L 300.60148 301.46433 
L 303.86434 302.850936 
L 308.75863 305.243362 
L 310.390059 305.893445 
L 312.021489 306.416757 
L 315.284349 307.097248 
L 318.547209 307.414475 
L 323.441498 307.559669 
L 338.124367 307.577267 
L 346.281517 307.448685 
L 357.701526 306.99489 
L 362.595815 307.149765 
L 367.490105 307.314006 
L 372.384395 307.220489 
L 378.910114 306.994579 
L 383.804404 307.124401 
L 391.961553 307.501016 
L 398.487273 307.577461 
L 398.487273 307.577461 
" clip-path="url(#p2122289fc9)" style="fill: none; stroke: #2ca02c; stroke-width: 1.5; stroke-linecap: square"/>
   </g>
   <g id="line2d_20">
    <path d="M 122.8674 307.565864 
L 127.642351 307.437003 
L 130.507321 307.174983 
L 132.417301 306.84578 
L 134.327281 306.341055 
L 136.237261 305.623256 
L 138.147241 304.670286 
L 140.057222 303.478074 
L 141.967202 302.054316 
L 143.877182 300.405416 
L 145.787162 298.524059 
L 147.697142 296.386449 
L 149.607122 293.96391 
L 151.517102 291.244686 
L 154.382073 286.676033 
L 159.157023 278.39357 
L 163.931973 269.840105 
L 165.841954 266.105873 
L 167.751934 261.969385 
L 169.661914 257.286989 
L 171.571894 251.958087 
L 173.481874 245.944118 
L 175.391854 239.28218 
L 178.256825 228.35947 
L 184.941755 202.303309 
L 187.806725 192.147833 
L 192.581676 176.298721 
L 196.401636 164.277767 
L 198.311616 158.767622 
L 200.221596 153.889129 
L 202.131576 149.90226 
L 203.086567 148.319397 
L 204.041557 147.043877 
L 204.996547 146.094059 
L 205.951537 145.481378 
L 206.906527 145.209494 
L 207.861517 145.273843 
L 208.816507 145.66162 
L 209.771497 146.3522 
L 210.726487 147.317936 
L 211.681477 148.525266 
L 213.591457 151.508682 
L 216.456428 156.765441 
L 219.321398 161.981235 
L 221.231378 165.040042 
L 223.141358 167.691763 
L 226.961318 172.591122 
L 228.871299 175.647945 
L 229.826289 177.53012 
L 230.781279 179.710129 
L 231.736269 182.217962 
L 233.646249 188.253503 
L 235.556229 195.538431 
L 238.421199 208.05259 
L 243.19615 229.571039 
L 246.06112 241.30542 
L 247.9711 248.401521 
L 249.88108 254.8511 
L 251.79106 260.598706 
L 253.701041 265.61799 
L 255.611021 269.949627 
L 257.521001 273.708537 
L 259.430981 277.046747 
L 262.295951 281.527425 
L 265.160921 285.465714 
L 267.070902 287.720534 
L 268.980882 289.628803 
L 270.890862 291.207178 
L 273.755832 293.151638 
L 277.575792 295.615436 
L 280.440763 297.724435 
L 286.170703 302.162939 
L 288.080683 303.407758 
L 289.990663 304.443703 
L 291.900644 305.267522 
L 293.810624 305.902431 
L 296.675594 306.578014 
L 299.540564 307.017937 
L 303.360525 307.359326 
L 308.135475 307.534585 
L 312.910425 307.57729 
L 312.910425 307.57729 
" clip-path="url(#p2122289fc9)" style="fill: none; stroke: #ff7f0e; stroke-width: 1.5; stroke-linecap: square"/>
   </g>
   <g id="line2d_21">
    <path d="M 109.512837 307.577795 
L 117.933908 307.462189 
L 124.48363 307.142479 
L 131.969027 306.796232 
L 148.81117 306.261933 
L 152.553868 305.865429 
L 154.425217 305.509374 
L 156.296566 304.980854 
L 158.167916 304.218753 
L 160.039265 303.162565 
L 161.910614 301.763839 
L 163.781963 299.99809 
L 165.653312 297.873704 
L 167.524662 295.434859 
L 170.331685 291.359158 
L 175.945733 282.977554 
L 177.817082 280.483935 
L 179.688431 278.264963 
L 181.55978 276.343972 
L 183.43113 274.685782 
L 188.109503 270.826575 
L 189.980852 268.874943 
L 191.852201 266.405559 
L 193.72355 263.327956 
L 195.594899 259.66244 
L 198.401923 253.358884 
L 202.144621 244.651412 
L 204.015971 240.779533 
L 205.88732 237.590814 
L 206.822994 236.325463 
L 207.758669 235.309488 
L 208.694343 234.557827 
L 209.630018 234.078158 
L 210.565693 233.870295 
L 211.501367 233.926024 
L 212.437042 234.229422 
L 213.372716 234.757668 
L 214.308391 235.482272 
L 216.17974 237.387709 
L 218.986764 240.861951 
L 221.793788 244.348811 
L 223.665137 246.422469 
L 225.536486 248.239338 
L 228.34351 250.589575 
L 232.086208 253.671776 
L 233.957557 255.560081 
L 235.828907 257.897418 
L 237.700256 260.797202 
L 239.571605 264.294231 
L 241.442954 268.324161 
L 245.185652 277.266175 
L 247.992676 283.784597 
L 249.864025 287.621745 
L 251.735375 290.898738 
L 253.606724 293.584286 
L 255.478073 295.724652 
L 257.349422 297.415351 
L 259.220771 298.767166 
L 261.09212 299.87775 
L 263.899144 301.235991 
L 266.706168 302.331903 
L 270.448866 303.517026 
L 278.869938 305.828372 
L 282.612636 306.670094 
L 285.41966 307.105785 
L 289.162358 307.424121 
L 293.840731 307.556598 
L 295.71208 307.572074 
L 295.71208 307.572074 
" clip-path="url(#p2122289fc9)" style="fill: none; stroke: #1f77b4; stroke-width: 1.5; stroke-linecap: square"/>
   </g>
   <g id="line2d_22">
    <path d="M 212.20369 307.584 
L 212.20369 41.472 
" clip-path="url(#p2122289fc9)" style="fill: none; stroke: #1f77b4; stroke-width: 1.5; stroke-linecap: square"/>
   </g>
   <g id="patch_3">
    <path d="M 57.6 307.584 
L 57.6 41.472 
" style="fill: none; stroke: #000000; stroke-width: 0.8; stroke-linejoin: miter; stroke-linecap: square"/>
   </g>
   <g id="patch_4">
    <path d="M 414.72 307.584 
L 414.72 41.472 
" style="fill: none; stroke: #000000; stroke-width: 0.8; stroke-linejoin: miter; stroke-linecap: square"/>
   </g>
   <g id="patch_5">
    <path d="M 57.6 307.584 
L 414.72 307.584 
" style="fill: none; stroke: #000000; stroke-width: 0.8; stroke-linejoin: miter; stroke-linecap: square"/>
   </g>
   <g id="patch_6">
    <path d="M 57.6 41.472 
L 414.72 41.472 
" style="fill: none; stroke: #000000; stroke-width: 0.8; stroke-linejoin: miter; stroke-linecap: square"/>
   </g>
   <g id="legend_1">
    <g id="patch_7">
     <path d="M 297.941875 137.818875 
L 407.72 137.818875 
Q 409.72 137.818875 409.72 135.818875 
L 409.72 48.472 
Q 409.72 46.472 407.72 46.472 
L 297.941875 46.472 
Q 295.941875 46.472 295.941875 48.472 
L 295.941875 135.818875 
Q 295.941875 137.818875 297.941875 137.818875 
z
" style="fill: #ffffff; opacity: 0.8; stroke: #cccccc; stroke-linejoin: miter"/>
    </g>
    <g id="text_19">
     <!-- age_bin -->
     <g transform="translate(333.284063 58.070438) scale(0.1 -0.1)">
      <defs>
       <path id="DejaVuSans-67" d="M 2906 1791 
Q 2906 2416 2648 2759 
Q 2391 3103 1925 3103 
Q 1463 3103 1205 2759 
Q 947 2416 947 1791 
Q 947 1169 1205 825 
Q 1463 481 1925 481 
Q 2391 481 2648 825 
Q 2906 1169 2906 1791 
z
M 3481 434 
Q 3481 -459 3084 -895 
Q 2688 -1331 1869 -1331 
Q 1566 -1331 1297 -1286 
Q 1028 -1241 775 -1147 
L 775 -588 
Q 1028 -725 1275 -790 
Q 1522 -856 1778 -856 
Q 2344 -856 2625 -561 
Q 2906 -266 2906 331 
L 2906 616 
Q 2728 306 2450 153 
Q 2172 0 1784 0 
Q 1141 0 747 490 
Q 353 981 353 1791 
Q 353 2603 747 3093 
Q 1141 3584 1784 3584 
Q 2172 3584 2450 3431 
Q 2728 3278 2906 2969 
L 2906 3500 
L 3481 3500 
L 3481 434 
z
" transform="scale(0.015625)"/>
       <path id="DejaVuSans-5f" d="M 3263 -1063 
L 3263 -1509 
L -63 -1509 
L -63 -1063 
L 3263 -1063 
z
" transform="scale(0.015625)"/>
      </defs>
      <use xlink:href="#DejaVuSans-61"/>
      <use xlink:href="#DejaVuSans-67" x="61.279297"/>
      <use xlink:href="#DejaVuSans-65" x="124.755859"/>
      <use xlink:href="#DejaVuSans-5f" x="186.279297"/>
      <use xlink:href="#DejaVuSans-62" x="236.279297"/>
      <use xlink:href="#DejaVuSans-69" x="299.755859"/>
      <use xlink:href="#DejaVuSans-6e" x="327.539062"/>
     </g>
    </g>
    <g id="line2d_23">
     <path d="M 299.941875 69.526688 
L 309.941875 69.526688 
L 319.941875 69.526688 
" style="fill: none; stroke: #1f77b4; stroke-width: 1.5; stroke-linecap: square"/>
    </g>
    <g id="text_20">
     <!-- (18.005, 33.13] -->
     <g transform="translate(327.941875 73.026688) scale(0.1 -0.1)">
      <defs>
       <path id="DejaVuSans-28" d="M 1984 4856 
Q 1566 4138 1362 3434 
Q 1159 2731 1159 2009 
Q 1159 1288 1364 580 
Q 1569 -128 1984 -844 
L 1484 -844 
Q 1016 -109 783 600 
Q 550 1309 550 2009 
Q 550 2706 781 3412 
Q 1013 4119 1484 4856 
L 1984 4856 
z
" transform="scale(0.015625)"/>
       <path id="DejaVuSans-35" d="M 691 4666 
L 3169 4666 
L 3169 4134 
L 1269 4134 
L 1269 2991 
Q 1406 3038 1543 3061 
Q 1681 3084 1819 3084 
Q 2600 3084 3056 2656 
Q 3513 2228 3513 1497 
Q 3513 744 3044 326 
Q 2575 -91 1722 -91 
Q 1428 -91 1123 -41 
Q 819 9 494 109 
L 494 744 
Q 775 591 1075 516 
Q 1375 441 1709 441 
Q 2250 441 2565 725 
Q 2881 1009 2881 1497 
Q 2881 1984 2565 2268 
Q 2250 2553 1709 2553 
Q 1456 2553 1204 2497 
Q 953 2441 691 2322 
L 691 4666 
z
" transform="scale(0.015625)"/>
       <path id="DejaVuSans-2c" d="M 750 794 
L 1409 794 
L 1409 256 
L 897 -744 
L 494 -744 
L 750 256 
L 750 794 
z
" transform="scale(0.015625)"/>
       <path id="DejaVuSans-20" transform="scale(0.015625)"/>
       <path id="DejaVuSans-33" d="M 2597 2516 
Q 3050 2419 3304 2112 
Q 3559 1806 3559 1356 
Q 3559 666 3084 287 
Q 2609 -91 1734 -91 
Q 1441 -91 1130 -33 
Q 819 25 488 141 
L 488 750 
Q 750 597 1062 519 
Q 1375 441 1716 441 
Q 2309 441 2620 675 
Q 2931 909 2931 1356 
Q 2931 1769 2642 2001 
Q 2353 2234 1838 2234 
L 1294 2234 
L 1294 2753 
L 1863 2753 
Q 2328 2753 2575 2939 
Q 2822 3125 2822 3475 
Q 2822 3834 2567 4026 
Q 2313 4219 1838 4219 
Q 1578 4219 1281 4162 
Q 984 4106 628 3988 
L 628 4550 
Q 988 4650 1302 4700 
Q 1616 4750 1894 4750 
Q 2613 4750 3031 4423 
Q 3450 4097 3450 3541 
Q 3450 3153 3228 2886 
Q 3006 2619 2597 2516 
z
" transform="scale(0.015625)"/>
       <path id="DejaVuSans-5d" d="M 1947 4863 
L 1947 -844 
L 622 -844 
L 622 -397 
L 1369 -397 
L 1369 4416 
L 622 4416 
L 622 4863 
L 1947 4863 
z
" transform="scale(0.015625)"/>
      </defs>
      <use xlink:href="#DejaVuSans-28"/>
      <use xlink:href="#DejaVuSans-31" x="39.013672"/>
      <use xlink:href="#DejaVuSans-38" x="102.636719"/>
      <use xlink:href="#DejaVuSans-2e" x="166.259766"/>
      <use xlink:href="#DejaVuSans-30" x="198.046875"/>
      <use xlink:href="#DejaVuSans-30" x="261.669922"/>
      <use xlink:href="#DejaVuSans-35" x="325.292969"/>
      <use xlink:href="#DejaVuSans-2c" x="388.916016"/>
      <use xlink:href="#DejaVuSans-20" x="420.703125"/>
      <use xlink:href="#DejaVuSans-33" x="452.490234"/>
      <use xlink:href="#DejaVuSans-33" x="516.113281"/>
      <use xlink:href="#DejaVuSans-2e" x="579.736328"/>
      <use xlink:href="#DejaVuSans-31" x="611.523438"/>
      <use xlink:href="#DejaVuSans-33" x="675.146484"/>
      <use xlink:href="#DejaVuSans-5d" x="738.769531"/>
     </g>
    </g>
    <g id="line2d_24">
     <path d="M 299.941875 84.204813 
L 309.941875 84.204813 
L 319.941875 84.204813 
" style="fill: none; stroke: #ff7f0e; stroke-width: 1.5; stroke-linecap: square"/>
    </g>
    <g id="text_21">
     <!-- (33.13, 48.18] -->
     <g transform="translate(327.941875 87.704813) scale(0.1 -0.1)">
      <use xlink:href="#DejaVuSans-28"/>
      <use xlink:href="#DejaVuSans-33" x="39.013672"/>
      <use xlink:href="#DejaVuSans-33" x="102.636719"/>
      <use xlink:href="#DejaVuSans-2e" x="166.259766"/>
      <use xlink:href="#DejaVuSans-31" x="198.046875"/>
      <use xlink:href="#DejaVuSans-33" x="261.669922"/>
      <use xlink:href="#DejaVuSans-2c" x="325.292969"/>
      <use xlink:href="#DejaVuSans-20" x="357.080078"/>
      <use xlink:href="#DejaVuSans-34" x="388.867188"/>
      <use xlink:href="#DejaVuSans-38" x="452.490234"/>
      <use xlink:href="#DejaVuSans-2e" x="516.113281"/>
      <use xlink:href="#DejaVuSans-31" x="547.900391"/>
      <use xlink:href="#DejaVuSans-38" x="611.523438"/>
      <use xlink:href="#DejaVuSans-5d" x="675.146484"/>
     </g>
    </g>
    <g id="line2d_25">
     <path d="M 299.941875 98.882938 
L 309.941875 98.882938 
L 319.941875 98.882938 
" style="fill: none; stroke: #2ca02c; stroke-width: 1.5; stroke-linecap: square"/>
    </g>
    <g id="text_22">
     <!-- (48.18, 63.23] -->
     <g transform="translate(327.941875 102.382938) scale(0.1 -0.1)">
      <use xlink:href="#DejaVuSans-28"/>
      <use xlink:href="#DejaVuSans-34" x="39.013672"/>
      <use xlink:href="#DejaVuSans-38" x="102.636719"/>
      <use xlink:href="#DejaVuSans-2e" x="166.259766"/>
      <use xlink:href="#DejaVuSans-31" x="198.046875"/>
      <use xlink:href="#DejaVuSans-38" x="261.669922"/>
      <use xlink:href="#DejaVuSans-2c" x="325.292969"/>
      <use xlink:href="#DejaVuSans-20" x="357.080078"/>
      <use xlink:href="#DejaVuSans-36" x="388.867188"/>
      <use xlink:href="#DejaVuSans-33" x="452.490234"/>
      <use xlink:href="#DejaVuSans-2e" x="516.113281"/>
      <use xlink:href="#DejaVuSans-32" x="547.900391"/>
      <use xlink:href="#DejaVuSans-33" x="611.523438"/>
      <use xlink:href="#DejaVuSans-5d" x="675.146484"/>
     </g>
    </g>
    <g id="line2d_26">
     <path d="M 299.941875 113.561063 
L 309.941875 113.561063 
L 319.941875 113.561063 
" style="fill: none; stroke: #d62728; stroke-width: 1.5; stroke-linecap: square"/>
    </g>
    <g id="text_23">
     <!-- (63.23, 78.28] -->
     <g transform="translate(327.941875 117.061063) scale(0.1 -0.1)">
      <defs>
       <path id="DejaVuSans-37" d="M 525 4666 
L 3525 4666 
L 3525 4397 
L 1831 0 
L 1172 0 
L 2766 4134 
L 525 4134 
L 525 4666 
z
" transform="scale(0.015625)"/>
      </defs>
      <use xlink:href="#DejaVuSans-28"/>
      <use xlink:href="#DejaVuSans-36" x="39.013672"/>
      <use xlink:href="#DejaVuSans-33" x="102.636719"/>
      <use xlink:href="#DejaVuSans-2e" x="166.259766"/>
      <use xlink:href="#DejaVuSans-32" x="198.046875"/>
      <use xlink:href="#DejaVuSans-33" x="261.669922"/>
      <use xlink:href="#DejaVuSans-2c" x="325.292969"/>
      <use xlink:href="#DejaVuSans-20" x="357.080078"/>
      <use xlink:href="#DejaVuSans-37" x="388.867188"/>
      <use xlink:href="#DejaVuSans-38" x="452.490234"/>
      <use xlink:href="#DejaVuSans-2e" x="516.113281"/>
      <use xlink:href="#DejaVuSans-32" x="547.900391"/>
      <use xlink:href="#DejaVuSans-38" x="611.523438"/>
      <use xlink:href="#DejaVuSans-5d" x="675.146484"/>
     </g>
    </g>
    <g id="line2d_27">
     <path d="M 299.941875 128.239188 
L 309.941875 128.239188 
L 319.941875 128.239188 
" style="fill: none; stroke: #9467bd; stroke-width: 1.5; stroke-linecap: square"/>
    </g>
    <g id="text_24">
     <!-- (78.28, 93.33] -->
     <g transform="translate(327.941875 131.739188) scale(0.1 -0.1)">
      <defs>
       <path id="DejaVuSans-39" d="M 703 97 
L 703 672 
Q 941 559 1184 500 
Q 1428 441 1663 441 
Q 2288 441 2617 861 
Q 2947 1281 2994 2138 
Q 2813 1869 2534 1725 
Q 2256 1581 1919 1581 
Q 1219 1581 811 2004 
Q 403 2428 403 3163 
Q 403 3881 828 4315 
Q 1253 4750 1959 4750 
Q 2769 4750 3195 4129 
Q 3622 3509 3622 2328 
Q 3622 1225 3098 567 
Q 2575 -91 1691 -91 
Q 1453 -91 1209 -44 
Q 966 3 703 97 
z
M 1959 2075 
Q 2384 2075 2632 2365 
Q 2881 2656 2881 3163 
Q 2881 3666 2632 3958 
Q 2384 4250 1959 4250 
Q 1534 4250 1286 3958 
Q 1038 3666 1038 3163 
Q 1038 2656 1286 2365 
Q 1534 2075 1959 2075 
z
" transform="scale(0.015625)"/>
      </defs>
      <use xlink:href="#DejaVuSans-28"/>
      <use xlink:href="#DejaVuSans-37" x="39.013672"/>
      <use xlink:href="#DejaVuSans-38" x="102.636719"/>
      <use xlink:href="#DejaVuSans-2e" x="166.259766"/>
      <use xlink:href="#DejaVuSans-32" x="198.046875"/>
      <use xlink:href="#DejaVuSans-38" x="261.669922"/>
      <use xlink:href="#DejaVuSans-2c" x="325.292969"/>
      <use xlink:href="#DejaVuSans-20" x="357.080078"/>
      <use xlink:href="#DejaVuSans-39" x="388.867188"/>
      <use xlink:href="#DejaVuSans-33" x="452.490234"/>
      <use xlink:href="#DejaVuSans-2e" x="516.113281"/>
      <use xlink:href="#DejaVuSans-33" x="547.900391"/>
      <use xlink:href="#DejaVuSans-33" x="611.523438"/>
      <use xlink:href="#DejaVuSans-5d" x="675.146484"/>
     </g>
    </g>
   </g>
  </g>
 </g>
 <defs>
  <clipPath id="p2122289fc9">
   <rect x="57.6" y="41.472" width="357.12" height="266.112"/>
  </clipPath>
 </defs>
</svg>
